<svg width="443" height="400" viewBox="0 0 444 404" fill="none" xmlns="http://www.w3.org/2000/svg">
    <path d="M1 403H426.209" stroke="#263238" stroke-width="0.663535" stroke-linecap="round" stroke-linejoin="round" />
    <path
        d="M326.652 287.893C326.652 287.893 329.892 302.524 329.615 305.701C329.339 308.877 331.59 314.102 334.603 314.889C337.615 315.675 346.454 314.723 348.429 311.671C352.172 305.742 348.933 290.118 348.429 284.592C347.926 279.067 326.652 287.893 326.652 287.893Z"
        fill="#018762" stroke="#263238" stroke-width="0.663535" stroke-linecap="round" stroke-linejoin="round" />
    <path d="M346.333 294.355C346.333 294.355 347.44 308.107 345.582 311.356" stroke="#263238" stroke-width="0.663535"
        stroke-linecap="round" stroke-linejoin="round" />
    <path d="M332.477 296.623C332.477 296.623 333.267 310.706 335.39 312.537Z" fill="#018762" />
    <path d="M332.477 296.623C332.477 296.623 333.267 310.706 335.39 312.537" stroke="#263238" stroke-width="0.663535"
        stroke-linecap="round" stroke-linejoin="round" />
    <path
        d="M330.645 299.014C330.645 299.014 343.968 296.375 345.844 296.375C347.72 296.375 347.957 297.068 348.086 299.014C348.214 300.959 334.763 301.342 333.015 302.387C331.267 303.432 332.886 305.791 332.886 306.443C332.886 307.095 345.587 306.702 346.841 305.656C348.096 304.611 347.711 308.016 347.217 308.926C346.723 309.837 334.852 311.151 332.472 310.623"
        fill="#018762" />
    <path
        d="M330.645 299.014C330.645 299.014 343.968 296.375 345.844 296.375C347.72 296.375 347.957 297.068 348.086 299.014C348.214 300.959 334.763 301.342 333.015 302.387C331.267 303.432 332.886 305.791 332.886 306.443C332.886 307.095 345.587 306.702 346.841 305.656C348.096 304.611 347.711 308.016 347.217 308.926C346.723 309.837 334.852 311.151 332.472 310.623"
        stroke="#263238" stroke-width="0.663535" stroke-linecap="round" stroke-linejoin="round" />
    <path
        d="M291.452 383.767C291.452 383.767 291.946 387.43 289.951 389.872C287.956 392.314 278.228 394.642 277.734 396.608C277.464 398.474 277.464 400.371 277.734 402.237H307.076C307.076 402.237 308.567 399.071 308.064 390.855C307.56 382.639 291.452 383.767 291.452 383.767Z"
        fill="#018762" stroke="#263238" stroke-width="0.663535" stroke-linecap="round" stroke-linejoin="round" />
    <path
        d="M292.979 208.152L290.51 218.292C290.51 218.292 290.372 277.054 289.849 283.614C289.199 289.929 289.617 296.314 291.083 302.477C292.703 309.006 289.473 323.006 291.083 326.203C292.693 329.401 291.962 367.83 290.095 372.766C288.229 377.701 290.303 385.513 290.303 385.513L308.08 390.863C308.08 390.863 311.043 379.088 309.947 376.222C308.85 373.355 311.201 373.604 310.203 363.288C309.206 352.971 318.183 263.458 318.934 264.855C319.685 266.252 324.86 283.935 324.86 284.742C324.86 285.549 322.815 287.619 323.566 288.539C324.316 289.46 323.437 293.382 327.181 295.338C332.059 297.883 340.484 296.227 343.476 294.386C346.469 292.544 351.841 290.381 351.772 287.619C351.703 284.856 351.772 282.166 349.915 281.876C349.915 281.876 350.399 270.121 348.928 264.855C347.456 259.588 344.434 243.736 344.434 238.325C344.434 232.913 339.634 204.717 339.634 204.717L292.979 208.152Z"
        fill="#263238" />
    <path d="M328.677 249.352C326.426 251.307 314.071 261.044 311.078 268.525" stroke="white" stroke-width="0.663535"
        stroke-linecap="round" stroke-linejoin="round" />
    <path d="M315.578 236.639C316.092 240.426 316.408 244.244 316.784 248.021" stroke="white" stroke-width="0.663535"
        stroke-linecap="round" stroke-linejoin="round" />
    <path d="M314.32 227.012C314.469 228.595 314.696 230.178 314.913 231.751" stroke="white" stroke-width="0.663535"
        stroke-linecap="round" stroke-linejoin="round" />
    <path d="M335.387 221.525C335.387 221.525 337.777 229.503 341.53 232.255" stroke="white" stroke-width="0.663535"
        stroke-linecap="round" stroke-linejoin="round" />
    <path d="M295.21 222.172C295.21 222.172 295.714 231.588 292.336 236.172" stroke="white" stroke-width="0.663535"
        stroke-linecap="round" stroke-linejoin="round" />
    <path d="M330.643 258.975C328.293 259.306 322.051 259.44 319.059 262.575" stroke="white" stroke-width="0.663535"
        stroke-linecap="round" stroke-linejoin="round" />
    <path d="M301.213 297.051C300.146 298.292 297.845 301.541 295.969 301.034" stroke="white" stroke-width="0.663535"
        stroke-linecap="round" stroke-linejoin="round" />
    <path d="M314.316 279.059C311.227 284.032 307.856 288.807 304.223 293.358" stroke="white" stroke-width="0.663535"
        stroke-linecap="round" stroke-linejoin="round" />
    <path d="M295.219 332.121C295.722 333.828 302.083 352.298 304.206 353.322" stroke="white" stroke-width="0.663535"
        stroke-linecap="round" stroke-linejoin="round" />
    <path d="M301.73 378.295C303.096 379.126 304.508 379.872 305.957 380.53" stroke="white" stroke-width="0.663535"
        stroke-linecap="round" stroke-linejoin="round" />
    <path d="M293.344 373.211L297.294 375.632" stroke="white" stroke-width="0.663535" stroke-linecap="round"
        stroke-linejoin="round" />
    <path d="M326.652 285.115C326.652 285.115 339.195 287.339 346.662 282.238" stroke="white" stroke-width="0.663535"
        stroke-linecap="round" stroke-linejoin="round" />
    <path d="M339.365 286.828C339.365 286.828 336.402 294.578 331.543 294.361" stroke="white" stroke-width="0.663535"
        stroke-linecap="round" stroke-linejoin="round" />
    <path
        d="M348.081 283.926C348.638 285.151 348.744 286.548 348.38 287.849C348.015 289.151 347.206 290.267 346.105 290.983"
        stroke="white" stroke-width="0.663535" stroke-linecap="round" stroke-linejoin="round" />
    <path
        d="M351.037 125.807C350.544 126.748 347.719 129.677 344.124 133.164C336.845 140.272 326.495 149.719 326.495 149.719L330.011 162.984C332.826 173.59 336.332 186.783 336.48 187.228C336.727 188.014 341.319 208.45 341.319 208.45V213.147C334.158 219.3 325.742 223.645 316.722 225.844C307.702 228.044 298.32 228.04 289.301 225.833C289.301 225.833 289.766 214.451 289.025 214.141C288.284 213.83 289.025 208.967 286.437 203.68C284.887 200.576 280.689 191.108 277.598 184.144L277.045 182.903L276.383 181.413L275.396 179.24L275.08 178.526L274.941 178.195L274.013 176.125L273.796 176.394C272.225 178.339 262.507 190.353 257.105 196.871C255.189 199.189 253.826 200.814 253.55 201.01C252.443 201.972 225.689 218.269 225.689 218.269C225.689 218.269 220.948 209.474 221.62 208.129C222.291 206.784 242.666 190.373 245.076 187.89C247.486 185.407 254.399 172.773 254.399 172.773C254.399 172.773 265.628 152.461 266.626 151.675C267.623 150.888 283.86 140.955 285.538 140.955C285.538 140.955 305.064 133.112 307.809 132.315C310.555 131.518 336.776 115.284 336.776 115.284C336.776 115.284 339.739 95.7067 340.016 93.6166C340.292 91.5264 340.618 83.6108 342.978 80.8999C343.357 80.4823 343.616 79.9629 343.729 79.3995L343.996 76.1609C351.373 72.8187 355.373 76.254 355.373 76.254V79.7617C355.412 80.2366 355.525 80.7016 355.709 81.1379C356.726 82.752 352.489 122.93 351.037 125.807Z"
        fill="#BFBFBF" />
    <path opacity="0.2"
        d="M269.072 167.149C270.417 170.344 271.989 173.429 273.773 176.379C272.202 178.324 262.484 190.337 257.082 196.856C259.166 189.717 263.946 184.005 265.358 182.277C267.106 180.125 265.111 179.721 263.62 176.069C262.129 172.416 268.845 176.545 268.351 173.668C267.857 170.792 268.183 164.894 269.072 167.149Z"
        fill="black" fill-opacity="0.7" />
    <path opacity="0.2"
        d="M344.13 133.181C336.851 140.289 326.501 149.736 326.501 149.736L330.017 163.001C324.733 159.183 321.286 146.446 322.343 146.053C329.967 143.207 343.982 133.274 344.13 133.129V133.181Z"
        fill="black" fill-opacity="0.7" />
    <path
        d="M358.232 52.3209C357.816 51.8531 357.263 51.5437 356.661 51.4414C355.538 51.9082 354.486 52.5462 353.54 53.3349C351.239 54.9905 348.543 57.1634 348.543 57.1634L353.787 68.5453C354.636 68.6168 355.489 68.4916 356.286 68.1786C357.083 67.8657 357.805 67.3727 358.399 66.7346V66.7346C359.183 65.9511 359.849 65.0475 360.375 64.0546L358.232 52.3209Z"
        fill="white" stroke="#263238" stroke-width="0.663535" stroke-linecap="round" stroke-linejoin="round" />
    <path
        d="M355.628 3.13536C355.042 3.36363 354.565 3.82572 354.302 4.42082C354.039 5.01592 354.012 5.69574 354.226 6.31195C357.811 16.5039 360.932 25.4129 363.648 33.2147L347.688 40.2197C344.261 32.7077 340.389 24.1195 335.975 14.3517C335.678 13.8172 335.202 13.4177 334.64 13.2312C334.077 13.0448 333.469 13.0848 332.933 13.3435C332.397 13.6022 331.973 14.061 331.742 14.6301C331.512 15.1993 331.493 15.8379 331.688 16.4212C351.273 59.9311 360.24 79.5391 367.47 88.6239C373.03 95.5876 410.313 184.677 423.083 215.594C423.326 216.195 423.788 216.67 424.366 216.915C424.944 217.159 425.59 217.153 426.164 216.898V216.898C426.633 216.689 427.024 216.326 427.28 215.863C427.778 216.017 428.311 215.988 428.791 215.781V215.781C429.364 215.527 429.819 215.047 430.057 214.445C430.295 213.843 430.298 213.167 430.065 212.563C417.977 181.345 383.489 91.0245 382.659 81.9914C381.553 70.2266 374.492 49.7805 358.611 4.6357C358.403 4.02425 357.973 3.5236 357.414 3.24263C356.856 2.96166 356.214 2.92311 355.628 3.13536V3.13536ZM365.258 37.9123C372.773 59.7863 376.665 72.4099 377.781 80.6876L370.028 84.0919C365.248 77.5214 359.352 65.7256 349.742 44.7725L365.258 37.9123ZM403.241 155.674C391.568 128.254 378.373 98.0502 372.823 88.1894L378.64 85.6336C381.464 96.6948 392.773 127.726 403.241 155.674V155.674Z"
        fill="#018762" stroke="#263238" stroke-width="0.663535" stroke-linecap="round" stroke-linejoin="round" />
    <path
        d="M329.938 17.0944C329.938 17.0944 332.9 10.11 343.063 5.6607C353.226 1.21141 360.327 3.74647 360.327 3.74647"
        stroke="#263238" stroke-width="4.64475" stroke-linecap="round" stroke-linejoin="round" />
    <path
        d="M423.41 215.971L430.15 213.011L443.436 246.22C443.586 246.595 443.587 247.016 443.441 247.392C443.294 247.768 443.01 248.067 442.653 248.224L438.609 250C438.251 250.157 437.849 250.159 437.49 250.005C437.131 249.851 436.845 249.555 436.696 249.18L423.41 215.971V215.971Z"
        fill="#263238" />
    <path
        d="M360.364 57.0599C360.364 57.0599 361.657 57.1841 361.282 60.5159C361.617 61.4299 361.652 62.4347 361.381 63.3717C361.183 63.9201 359.88 65.2032 357.608 65.2135C357.085 65.2135 357.114 63.796 357.342 63.7546C357.114 63.7546 356.245 63.8477 355.939 63.113C355.633 62.3784 356.571 60.0089 356.65 59.833C356.527 59.9345 356.384 60.0059 356.231 60.0418C356.079 60.0777 355.92 60.0773 355.768 60.0406C355.615 60.0038 355.472 59.9317 355.35 59.8295C355.227 59.7274 355.128 59.5977 355.06 59.4501C354.458 58.3223 355.396 56.7806 355.396 56.7806C355.188 56.8384 354.97 56.8491 354.757 56.8121C354.545 56.7751 354.342 56.6913 354.163 56.566C353.984 56.4408 353.832 56.2771 353.717 56.0858C353.603 55.8944 353.529 55.6798 353.5 55.4561C353.38 54.7546 353.38 54.0365 353.5 53.3349C354.445 52.5462 355.497 51.9082 356.621 51.4414C357.274 51.4519 357.917 51.622 358.497 51.9381C358.721 52.6622 358.896 53.4022 359.02 54.1524C360.541 54.0799 360.976 55.6941 360.364 57.0599Z"
        fill="#C69F64" stroke="#263238" stroke-width="0.663535" stroke-linecap="round" stroke-linejoin="round" />
    <path
        d="M353.778 62.0629C354.548 59.8279 352.711 56.8893 352.543 56.5789C352.375 56.2685 354.094 55.0165 354.094 55.0165C354.652 55.1376 355.232 55.0912 355.767 54.8826C356.301 54.6739 356.769 54.3115 357.116 53.8369C357.116 53.8369 354.291 52.5952 353.669 52.1606C353.047 51.7261 348.8 54.3853 347.951 55.9167C347.101 57.4481 347.684 66.5226 347.684 66.5226L345.906 76.1662C348.573 77.5569 351.654 77.7983 354.489 76.8387L355.259 68.9852"
        fill="#C69F64" />
    <path
        d="M353.778 62.0629C354.548 59.8279 352.711 56.8893 352.543 56.5789C352.375 56.2685 354.094 55.0165 354.094 55.0165C354.652 55.1376 355.232 55.0912 355.767 54.8826C356.301 54.6739 356.769 54.3115 357.116 53.8369C357.116 53.8369 354.291 52.5952 353.669 52.1606C353.047 51.7261 348.8 54.3853 347.951 55.9167C347.101 57.4481 347.684 66.5226 347.684 66.5226L345.906 76.1662C348.573 77.5569 351.654 77.7983 354.489 76.8387L355.259 68.9852"
        stroke="#263238" stroke-width="0.663535" stroke-linecap="round" stroke-linejoin="round" />
    <path d="M355.391 56.7872C356.089 56.148 356.828 55.56 357.604 55.0273" stroke="#263238" stroke-width="0.663535"
        stroke-linecap="round" stroke-linejoin="round" />
    <path d="M356.648 59.8384L358.832 57.8301" stroke="#263238" stroke-width="0.663535" stroke-linecap="round"
        stroke-linejoin="round" />
    <path d="M357.344 63.7618L359.3 62.1055" stroke="#263238" stroke-width="0.663535" stroke-linecap="round"
        stroke-linejoin="round" />
    <path
        d="M222.705 208.146L219.515 209.678C219.515 209.678 218.833 216.197 222.705 218.297L226.241 217.107C226.241 217.107 225.421 211.934 224.068 210.05"
        fill="#BFBFBF" />
    <path
        d="M222.705 208.146L219.515 209.678C219.515 209.678 218.833 216.197 222.705 218.297L226.241 217.107C226.241 217.107 225.421 211.934 224.068 210.05"
        stroke="#263238" stroke-width="0.663535" stroke-linecap="round" stroke-linejoin="round" />
    <path
        d="M220.108 211.066L213.442 212.505C213.442 212.505 206.894 214.46 205.541 214.574C204.188 214.688 202.203 221.227 202.321 222.272C202.44 223.317 203.566 226.411 204.712 225.594C205.502 225.045 204.198 221.838 204.198 221.838C204.874 221.037 205.475 220.171 205.995 219.251C205.995 219.251 210.341 218.216 210.934 217.999C211.526 217.782 211.427 219.624 211.121 220.255C210.815 220.886 207.961 222.976 207.714 224.238C207.408 225.873 208.603 226.153 208.603 226.153C208.603 226.153 211.171 223.193 213.304 223.048C215.437 222.904 218.173 219.944 219.229 219.168C220.357 218.429 221.532 217.772 222.745 217.202C222.745 217.202 222.024 213.136 220.108 211.066Z"
        fill="white" stroke="#263238" stroke-width="0.663535" stroke-linecap="round" stroke-linejoin="round" />
    <path d="M268.387 164.646C268.387 164.646 270.115 172.293 274.026 176.111" stroke="#263238" stroke-width="0.663535"
        stroke-linecap="round" stroke-linejoin="round" />
    <path d="M263.516 171.287C263.516 171.287 268.385 175.24 271.209 175.674" stroke="#263238" stroke-width="0.663535"
        stroke-linecap="round" stroke-linejoin="round" />
    <path d="M245.086 187.91C245.086 187.91 249.609 191.128 248.602 195.919" stroke="#263238" stroke-width="0.663535"
        stroke-linecap="round" stroke-linejoin="round" />
    <path d="M285.289 150.081C285.289 150.081 296.222 156.579 302.622 145.59" stroke="#263238" stroke-width="0.663535"
        stroke-linecap="round" stroke-linejoin="round" />
    <path d="M318.18 134.621C318.18 134.621 320.392 146.106 326.495 149.78" stroke="#263238" stroke-width="0.663535"
        stroke-linecap="round" stroke-linejoin="round" />
    <path d="M336.773 115.301C336.773 115.301 341.02 120.205 343.084 116.129" stroke="#263238" stroke-width="0.663535"
        stroke-linecap="round" stroke-linejoin="round" />
    <path d="M343.758 79.4199C343.758 79.4199 347.501 82.5241 353.436 80.8271" stroke="#263238" stroke-width="0.663535"
        stroke-linecap="round" stroke-linejoin="round" />
    <path
        d="M302.659 139.204C302.659 139.204 298.709 146.695 294.353 148.196C288.833 150.089 285.327 144.854 285.327 144.854L284.675 141.304L283.016 132.427L297.287 128.764C297.282 129.992 297.408 131.217 297.662 132.416C298.867 137.942 302.659 139.204 302.659 139.204Z"
        fill="#C69F64" stroke="#263238" stroke-width="0.663535" stroke-linecap="round" stroke-linejoin="round" />
    <path
        d="M297.662 132.427C296.433 134.98 294.58 137.146 292.292 138.704C290.003 140.262 287.361 141.155 284.635 141.294L283.016 132.427L297.287 128.764C297.281 129.995 297.407 131.224 297.662 132.427Z"
        fill="#263238" />
    <path
        d="M300.415 117.734C300.415 117.734 303.378 115.509 304.02 117.03C304.662 118.551 303.694 117.816 303.497 120.714C303.299 123.611 302.736 126.622 300.326 126.643C297.917 126.663 298.776 118.789 300.415 117.734Z"
        fill="#C69F64" stroke="#263238" stroke-width="0.663535" stroke-linecap="round" stroke-linejoin="round" />
    <path
        d="M277.714 117.703C277.714 117.703 274.969 115.137 274.208 116.586C273.448 118.034 274.455 117.403 274.346 120.3C274.238 123.198 274.475 126.271 276.865 126.56C279.255 126.85 279.235 118.976 277.714 117.703Z"
        fill="#C69F64" stroke="#263238" stroke-width="0.663535" stroke-linecap="round" stroke-linejoin="round" />
    <path
        d="M288.504 101.171C282.035 101.171 278.776 102.485 277.275 107.617C274.994 115.461 277.7 128.602 278.441 130.981C279.102 133.051 284.603 136.59 287.961 136.766C290.203 136.89 296.781 133.961 298.144 131.592C298.864 130.33 302.696 117.023 300.267 108.538C298.776 103.344 294.756 101.109 288.504 101.171Z"
        fill="#C69F64" stroke="#263238" stroke-width="0.663535" stroke-linecap="round" stroke-linejoin="round" />
    <path
        d="M285.863 105.41C285.863 105.41 292.698 104.241 292.954 104.241C293.211 104.241 296.579 105.276 297.112 106.311C297.646 107.345 297.734 111.67 297.734 111.67C297.734 111.67 298.88 113.957 299.591 115.602C300.122 117.253 300.453 118.967 300.579 120.703L302.554 115.219C302.554 115.219 303.028 104.448 301.566 102.41C300.105 100.371 285.863 93.8422 285.863 93.8422C285.863 93.8422 285.547 96.5428 285.261 96.3565C284.974 96.1703 278.348 92.8281 278.348 92.8281L278.772 97.3705L275.069 97.5568V103.62C275.069 103.62 274.437 113.771 276.353 119.41C276.637 116.778 277.217 114.191 278.081 111.701C278.081 111.701 277.992 106.528 278.348 105.917C278.703 105.307 279.849 103.889 285.863 105.41Z"
        fill="#263238" />
    <path
        d="M278.871 399.795C279.246 399.795 290.969 399.402 292.846 399.795C294.722 400.188 297.093 401.099 298.584 400.447C300.075 399.795 305.952 399.619 305.952 399.619"
        stroke="#263238" stroke-width="0.663535" stroke-linecap="round" stroke-linejoin="round" />
    <path
        d="M284.34 392.983C284.34 392.983 289.475 392.476 291.47 393.852L294.088 392.745C294.088 392.745 291.411 390.406 288.754 390.851"
        stroke="#263238" stroke-width="0.663535" stroke-linecap="round" stroke-linejoin="round" />
    <path
        d="M290.797 388.567C290.797 388.567 294.017 388.846 295.261 390.792L297.888 388.567C297.888 388.567 293.868 386.094 291.32 386.994"
        stroke="#263238" stroke-width="0.663535" stroke-linecap="round" stroke-linejoin="round" />
    <path d="M324.848 192.908C324.848 192.908 315.515 213.437 301.066 217.121" stroke="#263238" stroke-width="0.663535"
        stroke-linecap="round" stroke-linejoin="round" />
    <path d="M286.5 174.451C286.5 174.451 297.591 187.344 318.183 183.402" stroke="#263238" stroke-width="0.663535"
        stroke-linecap="round" stroke-linejoin="round" />
    <path d="M264.049 344.213L259.395 344.904L259.737 347.435L264.391 346.743L264.049 344.213Z" fill="#92E3A9"
        stroke="#263238" stroke-width="0.663535" stroke-linecap="round" stroke-linejoin="round" />
    <path
        d="M280.937 371.554L286.419 370.747L286.033 367.922L281.204 368.646C279.95 368.812 279.377 370.509 280.937 371.554Z"
        fill="#018762" stroke="#263238" stroke-width="0.663535" stroke-linecap="round" stroke-linejoin="round" />
    <path
        d="M274.091 321.321L279.572 320.514L279.187 317.689L274.358 318.414C273.182 318.579 272.58 320.276 274.091 321.321Z"
        fill="#92E3A9" stroke="#263238" stroke-width="0.663535" stroke-linecap="round" stroke-linejoin="round" />
    <path
        d="M281.661 397.111C287.883 396.19 289.73 371.812 285.779 342.654C281.829 313.495 273.602 290.618 267.38 291.549C261.158 292.48 259.311 316.848 263.252 346.006C267.192 375.165 275.439 398.042 281.661 397.111ZM267.745 294.291C268.348 294.291 271.31 296.474 275.133 307.266C278.471 316.693 281.325 329.399 283.172 343.047C285.019 356.695 285.641 369.732 284.94 379.759C284.13 391.265 281.848 394.245 281.285 394.379C280.703 394.379 277.74 392.217 273.908 381.394C270.57 371.967 267.716 359.261 265.869 345.613C264.022 331.965 263.4 318.928 264.101 308.901C264.911 297.426 267.182 294.456 267.745 294.291V294.291Z"
        fill="#018762" stroke="#263238" stroke-width="0.663535" stroke-linecap="round" stroke-linejoin="round" />
    <path
        d="M261.279 292.445C255.057 293.376 253.211 317.754 257.161 346.902C261.112 376.05 269.338 398.938 275.56 398.017C281.782 397.096 283.629 372.708 279.679 343.56C275.728 314.412 267.501 291.524 261.279 292.445ZM264.647 307.821C267.551 313.077 270.514 322.928 272.706 334.93C272.497 334.555 272.245 334.207 271.956 333.896L264.647 307.821ZM261.882 306.227C262.87 309.528 267.679 328.939 269.358 335.644C269.198 336.324 269.089 337.016 269.032 337.714L260.618 335.572C259.531 322.307 260.025 311.432 261.882 306.258V306.227ZM274.82 355.066C275.015 354.69 275.168 354.29 275.274 353.876C276.351 366.044 276.114 376.371 274.721 382.269L274.82 355.066ZM261.042 339.99L269.062 342.95C269.062 343.653 269.19 344.367 269.289 345.102C269.388 345.836 269.506 346.55 269.635 347.244L262.721 352.417C262.386 350.403 262.073 348.333 261.783 346.209C261.493 344.084 261.247 342.011 261.042 339.99ZM263.492 356.794L271.008 352.283C271.242 352.933 271.526 353.563 271.857 354.166C272.025 361.098 272.509 381.162 272.489 384.607C269.329 380.189 265.961 369.852 263.492 356.794V356.794Z"
        fill="white" />
    <path opacity="0.7"
        d="M261.295 292.445C255.073 293.376 253.226 317.754 257.177 346.902C261.127 376.05 269.354 398.938 275.576 398.017C281.798 397.096 283.645 372.708 279.694 343.56C275.744 314.412 267.517 291.524 261.295 292.445ZM264.663 307.821C267.567 313.077 270.529 322.928 272.722 334.93C272.513 334.555 272.261 334.207 271.971 333.896L264.663 307.821ZM261.898 306.227C262.885 309.528 267.695 328.939 269.374 335.644C269.214 336.324 269.105 337.016 269.048 337.714L260.633 335.572C259.547 322.307 260.041 311.432 261.898 306.258V306.227ZM274.835 355.066C275.031 354.69 275.183 354.29 275.29 353.876C276.366 366.044 276.129 376.371 274.737 382.269L274.835 355.066ZM261.058 339.99L269.078 342.95C269.078 343.653 269.206 344.367 269.305 345.102C269.403 345.836 269.522 346.55 269.65 347.244L262.737 352.417C262.401 350.403 262.088 348.333 261.799 346.209C261.509 344.084 261.262 342.011 261.058 339.99ZM263.507 356.794L271.023 352.283C271.257 352.933 271.541 353.563 271.873 354.166C272.04 361.098 272.524 381.162 272.505 384.607C269.344 380.189 265.976 369.852 263.507 356.794V356.794Z"
        fill="#018762" />
    <path
        d="M261.279 292.445C255.057 293.376 253.211 317.754 257.161 346.902C261.112 376.05 269.338 398.938 275.56 398.017C281.782 397.096 283.629 372.708 279.679 343.56C275.728 314.412 267.501 291.524 261.279 292.445ZM264.647 307.821C267.551 313.077 270.514 322.928 272.706 334.93C272.497 334.555 272.245 334.207 271.956 333.896L264.647 307.821ZM261.882 306.227C262.87 309.528 267.679 328.939 269.358 335.644C269.198 336.324 269.089 337.016 269.032 337.714L260.618 335.572C259.531 322.307 260.025 311.432 261.882 306.258V306.227ZM274.82 355.066C275.015 354.69 275.168 354.29 275.274 353.876C276.351 366.044 276.114 376.371 274.721 382.269L274.82 355.066ZM261.042 339.99L269.062 342.95C269.062 343.653 269.19 344.367 269.289 345.102C269.388 345.836 269.506 346.55 269.635 347.244L262.721 352.417C262.386 350.403 262.073 348.333 261.783 346.209C261.493 344.084 261.247 342.011 261.042 339.99ZM263.492 356.794L271.008 352.283C271.242 352.933 271.526 353.563 271.857 354.166C272.025 361.098 272.509 381.162 272.489 384.607C269.329 380.189 265.961 369.852 263.492 356.794V356.794Z"
        stroke="#263238" stroke-width="0.663535" stroke-linecap="round" stroke-linejoin="round" />
    <path
        d="M272.538 402.058C267.906 402.058 263.649 396.595 259.699 385.409C256.133 375.517 253.101 362.159 251.156 347.808C249.18 333.456 248.588 319.736 249.388 309.202C250.375 296.517 253.24 289.998 258.217 289.253C263.195 288.508 267.708 293.94 272.044 305.808C275.609 315.7 278.641 329.059 280.577 343.41C282.513 357.762 283.155 371.482 282.355 382.026C281.367 394.701 278.503 401.22 273.525 401.965C273.199 402.02 272.869 402.052 272.538 402.058V402.058ZM259.205 296.558C256.578 299.372 254.059 317.656 258 346.794C261.941 375.931 269.209 392.756 272.488 394.701C275.115 391.876 277.624 373.593 273.683 344.466C269.743 315.338 262.434 298.493 259.205 296.558Z"
        fill="#263238" />
    <path
        d="M256.927 293.091C250.705 294.012 248.858 318.39 252.798 347.549C256.739 376.707 264.986 399.585 271.208 398.653C277.43 397.722 279.276 373.355 275.326 344.196C271.376 315.038 263.159 292.17 256.927 293.091ZM269.153 393.242C264.344 393.956 257.588 373.417 254.063 347.362C250.537 321.308 251.584 299.6 256.393 298.886C261.203 298.172 267.958 318.721 271.484 344.776C275.01 370.83 273.963 392.528 269.153 393.242Z"
        fill="white" />
    <path
        d="M256.919 293.099C250.697 294.02 248.85 318.398 252.791 347.556C256.731 376.715 264.978 399.593 271.2 398.661C277.422 397.73 279.269 373.362 275.318 344.204C271.368 315.046 263.151 292.178 256.919 293.099ZM269.146 393.25C264.336 393.964 257.581 373.424 254.055 347.37C250.529 321.316 251.576 299.608 256.386 298.894C261.195 298.18 267.951 318.729 271.476 344.783C275.002 370.838 273.955 392.536 269.146 393.25Z"
        fill="#018762" />
    <path
        d="M256.927 293.091C250.705 294.012 248.858 318.39 252.798 347.549C256.739 376.707 264.986 399.585 271.208 398.653C277.43 397.722 279.276 373.355 275.326 344.196C271.376 315.038 263.159 292.17 256.927 293.091ZM269.153 393.242C264.344 393.956 257.588 373.417 254.063 347.362C250.537 321.308 251.584 299.6 256.393 298.886C261.203 298.172 267.958 318.721 271.484 344.776C275.01 370.83 273.963 392.528 269.153 393.242Z"
        stroke="#263238" stroke-width="0.663535" stroke-linecap="round" stroke-linejoin="round" />
    <path d="M234.773 349.716H272.263L271.068 341.842H234.773V349.716Z" fill="#1A2E35" />
    <path
        d="M249.229 382.608H230.988C230.403 382.608 229.843 382.365 229.43 381.932C229.017 381.5 228.785 380.913 228.785 380.301C228.785 379.689 229.017 379.102 229.43 378.669C229.843 378.236 230.403 377.993 230.988 377.993H249.229C251.379 377.991 253.439 377.095 254.959 375.502C256.479 373.91 257.335 371.75 257.337 369.498V280.854C257.337 279.081 256.665 277.381 255.469 276.127C254.272 274.874 252.649 274.17 250.957 274.17H236.419C235.835 274.17 235.275 273.926 234.862 273.494C234.449 273.061 234.217 272.474 234.217 271.862C234.217 271.25 234.449 270.663 234.862 270.231C235.275 269.798 235.835 269.555 236.419 269.555H250.957C253.817 269.557 256.558 270.749 258.58 272.867C260.602 274.986 261.739 277.858 261.742 280.854V369.498C261.739 372.974 260.42 376.307 258.074 378.765C255.728 381.223 252.547 382.605 249.229 382.608V382.608Z"
        fill="white" />
    <path opacity="0.4"
        d="M249.221 382.616H230.98C230.396 382.616 229.835 382.373 229.422 381.94C229.009 381.507 228.777 380.921 228.777 380.309C228.777 379.697 229.009 379.11 229.422 378.677C229.835 378.244 230.396 378.001 230.98 378.001H249.221C251.371 377.998 253.432 377.103 254.952 375.51C256.472 373.917 257.327 371.758 257.329 369.506V280.862C257.329 279.089 256.657 277.389 255.461 276.135C254.264 274.882 252.641 274.177 250.949 274.177H236.412C235.828 274.177 235.267 273.934 234.854 273.502C234.441 273.069 234.209 272.482 234.209 271.87C234.209 271.258 234.441 270.671 234.854 270.238C235.267 269.806 235.828 269.563 236.412 269.562H250.949C253.809 269.565 256.551 270.757 258.572 272.875C260.594 274.993 261.732 277.866 261.734 280.862V369.506C261.732 372.982 260.412 376.315 258.066 378.773C255.72 381.231 252.539 382.613 249.221 382.616V382.616Z"
        fill="#018762" />
    <path
        d="M249.229 382.608H230.988C230.403 382.608 229.843 382.365 229.43 381.932C229.017 381.5 228.785 380.913 228.785 380.301C228.785 379.689 229.017 379.102 229.43 378.669C229.843 378.236 230.403 377.993 230.988 377.993H249.229C251.379 377.991 253.439 377.095 254.959 375.502C256.479 373.91 257.335 371.75 257.337 369.498V280.854C257.337 279.081 256.665 277.381 255.469 276.127C254.272 274.874 252.649 274.17 250.957 274.17H236.419C235.835 274.17 235.275 273.926 234.862 273.494C234.449 273.061 234.217 272.474 234.217 271.862C234.217 271.25 234.449 270.663 234.862 270.231C235.275 269.798 235.835 269.555 236.419 269.555H250.957C253.817 269.557 256.558 270.749 258.58 272.867C260.602 274.986 261.739 277.858 261.742 280.854V369.498C261.739 372.974 260.42 376.307 258.074 378.765C255.728 381.223 252.547 382.605 249.229 382.608V382.608Z"
        stroke="#263238" stroke-width="0.663535" stroke-linecap="round" stroke-linejoin="round" />
    <path
        d="M259.826 266.34H244.231C243.243 266.34 242.434 267.571 242.434 269.092C242.434 270.613 243.234 271.845 244.231 271.845H259.826C260.813 271.845 261.633 270.613 261.633 269.092C261.633 267.571 260.823 266.34 259.826 266.34Z"
        fill="#263238" />
    <path
        d="M243.686 271.722L260.248 266.425L254.639 264.945C254.476 264.859 254.297 264.813 254.115 264.811H238.471C237.484 264.811 236.674 266.042 236.674 267.563C236.644 268.05 236.729 268.537 236.922 268.981C237.115 269.425 237.41 269.812 237.78 270.108V270.108L237.958 270.191L238.116 270.264L243.686 271.722Z"
        fill="#263238" />
    <path
        d="M232.543 288.417V213.131H153.84V290.735H156.585V302.117C156.585 302.117 226.38 340.174 259.475 300.989L257.332 288.49L232.543 288.417Z"
        fill="#757575" />
    <path opacity="0.2"
        d="M232.54 224.334C221.105 219.953 209.024 217.708 196.848 217.701C177.599 217.939 162.094 241.903 161.373 253.151C160.652 264.398 166.913 271.776 177.017 267.244C187.12 262.711 199.465 263.332 201.065 269.096C202.665 274.859 177.165 282.764 181.56 288.424C185.955 294.084 232.54 288.424 232.54 288.424V224.334Z"
        fill="black" fill-opacity="0.7" />
    <path opacity="0.2"
        d="M161.32 291.518C161.32 291.518 181.971 308.26 210.059 309.108C238.147 309.957 261.87 288.414 261.87 288.414H232.537L161.32 291.518Z"
        fill="black" fill-opacity="0.7" />
    <path
        d="M232.543 288.417V213.131H153.84V290.735H156.585V302.117C156.585 302.117 226.38 340.174 259.475 300.989L257.332 288.49L232.543 288.417Z"
        stroke="#263238" stroke-width="0.663535" stroke-linecap="round" stroke-linejoin="round" />
    <path
        d="M223.741 201.562H222.951C222.367 201.562 221.806 201.806 221.393 202.238C220.98 202.671 220.748 203.258 220.748 203.87C220.748 204.482 220.98 205.069 221.393 205.502C221.806 205.934 222.367 206.177 222.951 206.177H223.741C225.775 206.18 227.726 207.028 229.164 208.535C230.603 210.042 231.412 212.086 231.415 214.217V304.434C231.22 304.37 231.016 304.342 230.812 304.352L223.899 309.06L193.233 332.061L165.481 309.846L159.052 305.324C158.595 305.332 158.151 305.489 157.783 305.772C157.414 306.056 157.139 306.453 156.996 306.908C156.853 307.363 156.848 307.854 156.983 308.311C157.118 308.769 157.385 309.172 157.748 309.463L189.451 334.855L156.583 361.644V214.217C156.583 210.863 155.312 207.645 153.049 205.273C150.786 202.9 147.716 201.565 144.514 201.562H143.714C143.13 201.562 142.57 201.806 142.157 202.238C141.744 202.671 141.512 203.258 141.512 203.87C141.512 204.482 141.744 205.069 142.157 205.502C142.57 205.934 143.13 206.177 143.714 206.177H144.514C146.548 206.18 148.499 207.028 149.937 208.535C151.376 210.042 152.185 212.086 152.188 214.217V366.321C152.185 366.625 152.24 366.926 152.35 367.207C152.46 367.488 152.622 367.744 152.827 367.959C153.032 368.174 153.276 368.343 153.544 368.458C153.813 368.573 154.1 368.631 154.39 368.628C154.877 368.629 155.35 368.457 155.733 368.142L192.977 337.794L232.313 368.183C232.642 368.436 233.03 368.588 233.436 368.623C233.842 368.658 234.25 368.575 234.613 368.382C234.976 368.189 235.281 367.894 235.494 367.53C235.707 367.166 235.82 366.748 235.819 366.321V214.217C235.817 210.862 234.543 207.645 232.279 205.272C230.014 202.899 226.943 201.565 223.741 201.562V201.562ZM231.415 361.789L196.799 335.041L231.415 309.07V361.789Z"
        fill="white" />
    <g opacity="0.4">
        <path opacity="0.4"
            d="M223.741 201.578H222.951C222.367 201.578 221.806 201.821 221.393 202.254C220.98 202.687 220.748 203.274 220.748 203.886C220.748 204.497 220.98 205.084 221.393 205.517C221.806 205.95 222.367 206.193 222.951 206.193H223.741C225.775 206.196 227.726 207.044 229.164 208.551C230.603 210.058 231.412 212.101 231.415 214.233V304.45C231.22 304.386 231.016 304.358 230.812 304.367L223.899 309.075L193.233 332.077L165.481 309.862L159.052 305.34C158.595 305.348 158.151 305.504 157.783 305.788C157.414 306.072 157.139 306.469 156.996 306.924C156.853 307.379 156.848 307.869 156.983 308.327C157.118 308.785 157.385 309.187 157.748 309.479L189.451 334.871L156.583 361.66V214.233C156.583 210.878 155.312 207.661 153.049 205.288C150.786 202.915 147.716 201.581 144.514 201.578H143.714C143.13 201.578 142.57 201.821 142.157 202.254C141.744 202.687 141.512 203.274 141.512 203.886C141.512 204.497 141.744 205.084 142.157 205.517C142.57 205.95 143.13 206.193 143.714 206.193H144.514C146.548 206.196 148.499 207.044 149.937 208.551C151.376 210.058 152.185 212.101 152.188 214.233V366.337C152.185 366.64 152.24 366.942 152.35 367.223C152.46 367.504 152.622 367.76 152.827 367.974C153.032 368.189 153.276 368.359 153.544 368.474C153.813 368.589 154.1 368.647 154.39 368.644C154.877 368.644 155.35 368.473 155.733 368.158L192.977 337.809L232.313 368.199C232.642 368.452 233.03 368.604 233.436 368.639C233.842 368.674 234.25 368.59 234.613 368.397C234.976 368.204 235.281 367.91 235.494 367.546C235.707 367.182 235.82 366.763 235.819 366.337V214.233C235.817 210.877 234.543 207.66 232.279 205.288C230.014 202.915 226.943 201.581 223.741 201.578V201.578ZM231.415 361.805L196.799 335.057L231.415 309.086V361.805Z"
            fill="#018762" />
    </g>
    <path
        d="M223.741 201.562H222.951C222.367 201.562 221.806 201.806 221.393 202.238C220.98 202.671 220.748 203.258 220.748 203.87C220.748 204.482 220.98 205.069 221.393 205.502C221.806 205.934 222.367 206.177 222.951 206.177H223.741C225.775 206.18 227.726 207.028 229.164 208.535C230.603 210.042 231.412 212.086 231.415 214.217V304.434C231.22 304.37 231.016 304.342 230.812 304.352L223.899 309.06L193.233 332.061L165.481 309.846L159.052 305.324C158.595 305.332 158.151 305.489 157.783 305.772C157.414 306.056 157.139 306.453 156.996 306.908C156.853 307.363 156.848 307.854 156.983 308.311C157.118 308.769 157.385 309.172 157.748 309.463L189.451 334.855L156.583 361.644V214.217C156.583 210.863 155.312 207.645 153.049 205.273C150.786 202.9 147.716 201.565 144.514 201.562H143.714C143.13 201.562 142.57 201.806 142.157 202.238C141.744 202.671 141.512 203.258 141.512 203.87C141.512 204.482 141.744 205.069 142.157 205.502C142.57 205.934 143.13 206.177 143.714 206.177H144.514C146.548 206.18 148.499 207.028 149.937 208.535C151.376 210.042 152.185 212.086 152.188 214.217V366.321C152.185 366.625 152.24 366.926 152.35 367.207C152.46 367.488 152.622 367.744 152.827 367.959C153.032 368.174 153.276 368.343 153.544 368.458C153.813 368.573 154.1 368.631 154.39 368.628C154.877 368.629 155.35 368.457 155.733 368.142L192.977 337.794L232.313 368.183C232.642 368.436 233.03 368.588 233.436 368.623C233.842 368.658 234.25 368.575 234.613 368.382C234.976 368.189 235.281 367.894 235.494 367.53C235.707 367.166 235.82 366.748 235.819 366.321V214.217C235.817 210.862 234.543 207.645 232.279 205.272C230.014 202.899 226.943 201.565 223.741 201.562V201.562ZM231.415 361.789L196.799 335.041L231.415 309.07V361.789Z"
        stroke="#263238" stroke-width="0.663535" stroke-linecap="round" stroke-linejoin="round" />
    <path
        d="M234.938 168.962L240.192 162.754C240.192 162.754 240.853 154.424 244.142 147.843C247.431 141.263 251.213 122.079 251.213 122.079C251.213 122.079 246.858 118.395 246.493 116.264C246.309 114.462 246.309 112.644 246.493 110.842C246.493 109.29 249.456 109.093 249.456 109.093V107.158L252.784 104.447C254.051 104.693 255.29 105.082 256.477 105.606C257.406 106.186 260.734 107.738 260.734 107.738C261.143 107.889 261.509 108.146 261.799 108.484C262.088 108.822 262.293 109.231 262.393 109.673C262.769 111.225 261.751 121.303 260.418 123.434C259.085 125.566 257.742 148.433 257.001 153.276C256.26 158.118 254.601 166.448 254.413 166.831C253.692 168.362 253.544 172.004 245.969 182.144"
        fill="#A0616A" />
    <path
        d="M234.938 168.962L240.192 162.754C240.192 162.754 240.853 154.424 244.142 147.843C247.431 141.263 251.213 122.079 251.213 122.079C251.213 122.079 246.858 118.395 246.493 116.264C246.309 114.462 246.309 112.644 246.493 110.842C246.493 109.29 249.456 109.093 249.456 109.093V107.158L252.784 104.447C254.051 104.693 255.29 105.082 256.477 105.606C257.406 106.186 260.734 107.738 260.734 107.738C261.143 107.889 261.509 108.146 261.799 108.484C262.088 108.822 262.293 109.231 262.393 109.673C262.769 111.225 261.751 121.303 260.418 123.434C259.085 125.566 257.742 148.433 257.001 153.276C256.26 158.118 254.601 166.448 254.413 166.831C253.692 168.362 253.544 172.004 245.969 182.144"
        stroke="#263238" stroke-width="0.663535" stroke-linecap="round" stroke-linejoin="round" />
    <path
        d="M249.453 109.039C250.754 109.772 252.104 110.405 253.492 110.933C254.016 110.933 253.749 112.764 252.969 112.94C252.189 113.116 250.006 113.851 250.006 113.851C250.006 113.851 252.446 114.037 252.702 117.317"
        stroke="#263238" stroke-width="0.663535" stroke-linecap="round" stroke-linejoin="round" />
    <path
        d="M251.078 109.89C251.615 109.202 252.189 108.545 252.797 107.924C253.495 107.421 254.224 106.964 254.979 106.559"
        stroke="#263238" stroke-width="0.663535" stroke-linecap="round" stroke-linejoin="round" />
    <path
        d="M251.605 113.337C251.605 114.662 253.66 115.686 254.272 114.858C254.272 114.858 255.408 115.955 256.188 115.955C256.966 115.819 257.76 115.819 258.539 115.955C259.674 116.234 260.455 113.824 260.277 113.337C260.099 112.851 259.151 113.337 259.151 113.337"
        stroke="#263238" stroke-width="0.663535" stroke-linecap="round" stroke-linejoin="round" />
    <path
        d="M257.444 115.868C256.724 114.616 256.2 112.878 256.457 112.061C256.714 111.243 259.064 109.07 259.064 109.07"
        stroke="#263238" stroke-width="0.663535" stroke-linecap="round" stroke-linejoin="round" />
    <path d="M254.26 114.837C254.141 113.855 253.969 112.88 253.746 111.918" stroke="#263238" stroke-width="0.663535"
        stroke-linecap="round" stroke-linejoin="round" />
    <path d="M253.496 110.938C253.496 110.938 255.471 108.206 256.39 107.834" stroke="#263238" stroke-width="0.663535"
        stroke-linecap="round" stroke-linejoin="round" />
    <path d="M251.215 122.07C251.956 122.992 253.497 122.629 253.497 122.629" stroke="#263238" stroke-width="0.663535"
        stroke-linecap="round" stroke-linejoin="round" />
    <path d="M255.961 123.943L257.731 124.533" stroke="#263238" stroke-width="0.663535" stroke-linecap="round"
        stroke-linejoin="round" />
    <path
        d="M161.325 246.244C161.325 246.244 157.721 257.378 157.77 259.561C157.819 261.744 161.167 266.949 163.696 267.27C166.224 267.59 177.522 267.27 178.51 267.27C179.498 267.27 177.69 262.21 174.905 255.888L178.411 248.252L161.325 246.244Z"
        fill="#A0616A" stroke="#263238" stroke-width="0.663535" stroke-linecap="round" stroke-linejoin="round" />
    <path
        d="M239.736 267.232C242.521 271.029 242.402 272.736 242.402 272.736C242.402 272.736 195.254 291.092 183.738 281.852C181.664 280.186 183.333 270.905 183.333 270.905L181.575 264.945C181.575 264.945 183.738 260.082 180.074 244.726L178.326 253.149C174.148 247.675 159.867 248.038 159.867 248.038C159.867 248.038 165.437 229.413 168.924 218.869C172.41 208.325 180.41 206.08 187.353 202.789C194.296 199.499 203.747 192.173 203.747 192.173C203.747 192.173 205.663 195.277 209.673 192.256C213.683 189.234 237.889 164.215 237.889 164.215C239.282 170.516 250.61 177.128 250.61 177.128C250.61 177.128 238.916 196.229 237.178 201.754C236.716 204.246 236.501 206.781 236.536 209.318C236.23 221.362 237.178 244.737 240.773 263.051C240.898 263.785 240.87 264.539 240.691 265.26C240.512 265.982 240.186 266.654 239.736 267.232V267.232Z"
        fill="#A9FFE7" stroke="#263238" stroke-width="0.663535" stroke-linecap="round" stroke-linejoin="round" />
    <path
        d="M250.605 177.119C250.605 177.119 238.922 196.22 237.184 201.746C236.722 204.237 236.507 206.772 236.542 209.31C227.367 195.786 214.172 196.52 214.172 196.52L208.108 208.192L195.269 204.053C195.269 204.053 185.195 218.167 185.265 221.819C185.334 225.472 180.089 244.769 180.089 244.769L178.341 253.192C174.164 247.718 159.883 248.08 159.883 248.08C159.883 248.08 165.453 229.456 168.939 218.912C172.426 208.368 180.425 206.123 187.368 202.832C194.311 199.542 203.763 192.216 203.763 192.216C203.763 192.216 205.679 195.32 209.688 192.299C213.698 189.277 237.905 164.258 237.905 164.258C239.277 170.508 250.605 177.119 250.605 177.119Z"
        fill="#92E3A9" />
    <path
        d="M250.598 177.131C250.598 177.131 238.914 196.232 237.176 201.757C236.714 204.249 236.499 206.784 236.534 209.321C227.359 195.797 214.164 196.532 214.164 196.532L208.1 208.204L195.261 204.065C195.261 204.065 185.188 218.178 185.257 221.831C185.326 225.484 180.082 244.781 180.082 244.781L178.334 253.204C174.156 247.73 159.875 248.092 159.875 248.092C159.875 248.092 165.445 229.467 168.931 218.923C172.418 208.38 180.417 206.134 187.36 202.844C194.303 199.553 203.755 192.228 203.755 192.228C203.755 192.228 205.671 195.332 209.681 192.31C213.69 189.289 237.897 164.27 237.897 164.27C239.27 170.519 250.598 177.131 250.598 177.131Z"
        fill="#018762" />
    <path
        d="M250.605 177.119C250.605 177.119 238.922 196.22 237.184 201.746C236.722 204.237 236.507 206.772 236.542 209.31C227.367 195.786 214.172 196.52 214.172 196.52L208.108 208.192L195.269 204.053C195.269 204.053 185.195 218.167 185.265 221.819C185.334 225.472 180.089 244.769 180.089 244.769L178.341 253.192C174.164 247.718 159.883 248.08 159.883 248.08C159.883 248.08 165.453 229.456 168.939 218.912C172.426 208.368 180.425 206.123 187.368 202.832C194.311 199.542 203.763 192.216 203.763 192.216C203.763 192.216 205.679 195.32 209.688 192.299C213.698 189.277 237.905 164.258 237.905 164.258C239.277 170.508 250.605 177.119 250.605 177.119Z"
        stroke="#263238" stroke-width="0.663535" stroke-linecap="round" stroke-linejoin="round" />
    <path
        d="M212.33 181.639V194.407L206.76 205.23L192.934 200.843C193.526 198.618 193.437 193.672 193.26 189.854C193.121 187.009 192.934 184.795 192.934 184.795L212.33 181.639Z"
        fill="#A0616A" stroke="#263238" stroke-width="0.663535" stroke-linecap="round" stroke-linejoin="round" />
    <path
        d="M212.336 181.639V193.828C210.206 194.705 207.947 195.188 205.66 195.256C201.275 195.256 196.001 191.831 193.275 189.854C193.137 187.009 192.949 184.795 192.949 184.795L212.336 181.639Z"
        fill="#263238" />
    <path
        d="M188.096 174.125C188.096 174.125 184.659 172.242 184.225 173.928C183.79 175.615 184.679 174.704 185.282 177.705C185.884 180.706 186.891 183.779 189.41 183.427C191.928 183.075 189.933 174.984 188.096 174.125Z"
        fill="#A0616A" stroke="#263238" stroke-width="0.663535" stroke-linecap="round" stroke-linejoin="round" />
    <path
        d="M211.8 170.707C211.8 170.707 214.318 167.603 215.316 169.011C216.313 170.418 215.178 169.9 215.681 172.932C216.185 175.964 216.363 179.14 213.904 179.854C211.445 180.568 210.417 172.197 211.8 170.707Z"
        fill="#A0616A" stroke="#263238" stroke-width="0.663535" stroke-linecap="round" stroke-linejoin="round" />
    <path
        d="M198.289 154.995C215.414 152.698 214.585 180.253 213.844 184.557C213.439 186.865 207.227 191.49 203.741 192.183C201.41 192.638 193.183 190.693 191.435 188.448C189.924 186.502 181.183 157.261 198.289 154.995Z"
        fill="#A0616A" stroke="#263238" stroke-width="0.663535" stroke-linecap="round" stroke-linejoin="round" />
    <path
        d="M191.319 159.86C191.319 159.86 194.924 160.232 196.899 159.136V157.915C196.899 157.915 200.287 159.312 202.479 158.949C203.753 158.709 205.057 158.709 206.331 158.949L203.22 157.097C203.22 157.097 207.338 157.584 209.61 159.953L210.36 164.392C211.984 166.858 213.134 169.63 213.748 172.556C213.748 172.556 213.145 160.75 211.062 157.946L212.681 157.708C212.681 157.708 209.551 153.331 205.659 151.986L208.099 151.499C208.099 151.499 196.435 148.83 192.949 152.958L190.855 152.11C190.855 152.11 187.458 156.373 187.892 158.07C186.904 159.765 186.073 161.557 185.413 163.419C184.83 165.489 185.996 173.363 185.996 173.363L188.485 177.843C188.485 177.843 188.662 170.6 190.638 167.217C190.628 167.186 190.302 162.157 191.319 159.86Z"
        fill="#263238" />
    <path d="M212.508 263.772C206.266 262.593 197.97 260.73 194.02 254.967" stroke="#263238" stroke-width="0.663535"
        stroke-linecap="round" stroke-linejoin="round" />
    <path d="M228.165 265.367C224.122 265.281 220.088 264.935 216.086 264.332" stroke="#263238" stroke-width="0.663535"
        stroke-linecap="round" stroke-linejoin="round" />
    <path d="M212.208 242.211C210.913 243.238 209.464 244.035 207.922 244.57" stroke="#263238" stroke-width="0.663535"
        stroke-linecap="round" stroke-linejoin="round" />
    <path d="M225.026 227.422C222.172 231.93 218.824 236.073 215.051 239.766" stroke="#263238" stroke-width="0.663535"
        stroke-linecap="round" stroke-linejoin="round" />
    <path d="M177.781 215.861C177.781 215.861 183.885 217.693 185.248 221.77" stroke="#263238" stroke-width="0.663535"
        stroke-linecap="round" stroke-linejoin="round" />
    <path d="M184.303 236.555C184.098 238.357 183.535 240.094 182.652 241.656" stroke="#263238" stroke-width="0.663535"
        stroke-linecap="round" stroke-linejoin="round" />
    <path d="M184.355 227.422C184.563 229.262 184.642 231.116 184.593 232.968" stroke="#263238" stroke-width="0.663535"
        stroke-linecap="round" stroke-linejoin="round" />
    <path d="M236.679 200.031C236.61 200.963 236.57 201.915 236.57 202.857" stroke="#263238" stroke-width="0.663535"
        stroke-linecap="round" stroke-linejoin="round" />
    <path d="M237.681 193.469C237.463 194.504 237.275 195.477 237.117 196.492" stroke="#263238" stroke-width="0.663535"
        stroke-linecap="round" stroke-linejoin="round" />
    <path d="M216.852 185.528C216.852 185.528 222.471 182.786 225.029 184.493" stroke="#263238" stroke-width="0.663535"
        stroke-linecap="round" stroke-linejoin="round" />
    <path d="M160.449 246.246C160.449 246.246 166.908 243.328 170.217 244.601" stroke="#263238" stroke-width="0.663535"
        stroke-linecap="round" stroke-linejoin="round" />
    <path d="M244.772 341.842H150.297V349.706H244.772V341.842Z" fill="#1A2E35" />
    <path
        d="M207.365 382.608H188.807C185.269 382.605 181.875 381.132 179.372 378.511C176.869 375.89 175.46 372.336 175.455 368.629V282.664C175.45 280.415 174.595 278.26 173.077 276.67C171.559 275.08 169.503 274.185 167.356 274.179H163.198C162.614 274.179 162.054 273.936 161.641 273.503C161.228 273.071 160.996 272.484 160.996 271.872C160.996 271.26 161.228 270.673 161.641 270.24C162.054 269.808 162.614 269.564 163.198 269.564H167.356C170.674 269.567 173.855 270.949 176.202 273.407C178.548 275.865 179.867 279.198 179.869 282.674V368.639C179.872 371.123 180.816 373.505 182.494 375.261C184.171 377.017 186.446 378.003 188.817 378.003H207.375C207.959 378.003 208.519 378.246 208.932 378.679C209.345 379.112 209.577 379.699 209.577 380.311C209.577 380.923 209.345 381.509 208.932 381.942C208.519 382.375 207.959 382.618 207.375 382.618L207.365 382.608Z"
        fill="white" />
    <g opacity="0.4">
        <path opacity="0.4"
            d="M207.361 382.606H188.804C185.265 382.603 181.871 381.13 179.368 378.509C176.865 375.888 175.456 372.334 175.451 368.627V282.662C175.446 280.413 174.591 278.259 173.073 276.668C171.556 275.078 169.499 274.183 167.352 274.177H163.195C162.61 274.177 162.05 273.934 161.637 273.502C161.224 273.069 160.992 272.482 160.992 271.87C160.992 271.258 161.224 270.671 161.637 270.238C162.05 269.806 162.61 269.563 163.195 269.562H167.352C170.67 269.565 173.852 270.947 176.198 273.405C178.544 275.863 179.863 279.196 179.866 282.672V368.637C179.868 371.121 180.812 373.503 182.49 375.259C184.168 377.015 186.442 378.001 188.813 378.001H207.371C207.955 378.001 208.515 378.244 208.928 378.677C209.341 379.11 209.573 379.697 209.573 380.309C209.573 380.921 209.341 381.507 208.928 381.94C208.515 382.373 207.955 382.616 207.371 382.616L207.361 382.606Z"
            fill="#018762" />
    </g>
    <path
        d="M207.365 382.608H188.807C185.269 382.605 181.875 381.132 179.372 378.511C176.869 375.89 175.46 372.336 175.455 368.629V282.664C175.45 280.415 174.595 278.26 173.077 276.67C171.559 275.08 169.503 274.185 167.356 274.179H163.198C162.614 274.179 162.054 273.936 161.641 273.503C161.228 273.071 160.996 272.484 160.996 271.872C160.996 271.26 161.228 270.673 161.641 270.24C162.054 269.808 162.614 269.564 163.198 269.564H167.356C170.674 269.567 173.855 270.949 176.202 273.407C178.548 275.865 179.867 279.198 179.869 282.674V368.639C179.872 371.123 180.816 373.505 182.494 375.261C184.171 377.017 186.446 378.003 188.817 378.003H207.375C207.959 378.003 208.519 378.246 208.932 378.679C209.345 379.112 209.577 379.699 209.577 380.311C209.577 380.923 209.345 381.509 208.932 381.942C208.519 382.375 207.959 382.618 207.375 382.618L207.365 382.608Z"
        stroke="#263238" stroke-width="0.663535" stroke-linecap="round" stroke-linejoin="round" />
    <path
        d="M180.593 266.34H164.999C164.011 266.34 163.191 267.571 163.191 269.092C163.191 270.613 164.001 271.845 164.999 271.845H180.593C181.581 271.845 182.391 270.613 182.391 269.092C182.391 267.571 181.591 266.34 180.593 266.34Z"
        fill="#263238" />
    <path
        d="M164.445 271.722L181.017 266.425L175.397 264.945C175.234 264.86 175.056 264.814 174.874 264.811H159.27C158.282 264.811 157.462 266.042 157.462 267.563C157.434 268.051 157.521 268.538 157.716 268.982C157.91 269.426 158.207 269.813 158.578 270.108V270.108L158.756 270.191L158.904 270.264L164.445 271.722Z"
        fill="#263238" />
    <path
        d="M148.985 316.604L143.484 315.963L143.188 318.798L148.037 319.357C149.212 319.46 150.209 317.97 148.985 316.604Z"
        fill="#92E3A9" stroke="#263238" stroke-width="0.663535" stroke-linecap="round" stroke-linejoin="round" />
    <path
        d="M143.661 366.993L138.16 366.352L137.863 369.187L142.712 369.745C143.937 369.88 144.925 368.39 143.661 366.993Z"
        fill="#92E3A9" stroke="#263238" stroke-width="0.663535" stroke-linecap="round" stroke-linejoin="round" />
    <path
        d="M162.071 339.827L162.634 335.294L153.123 338.067C153.123 338.067 160.116 305.991 160.353 305.619C160.59 305.246 158.664 303.125 158.664 303.125L150.645 335.45L153.143 343.448L162.071 339.827Z"
        fill="white" />
    <path opacity="0.6"
        d="M162.06 339.83L162.622 335.298L153.112 338.071C153.112 338.071 160.104 305.995 160.341 305.623C160.578 305.25 158.652 303.129 158.652 303.129L150.633 335.454L153.131 343.452L162.06 339.83Z"
        fill="#018762" />
    <path
        d="M162.071 339.827L162.634 335.294L153.123 338.067C153.123 338.067 160.116 305.991 160.353 305.619C160.59 305.246 158.664 303.125 158.664 303.125L150.645 335.45L153.143 343.448L162.071 339.827Z"
        stroke="#263238" stroke-width="0.663535" stroke-linecap="round" stroke-linejoin="round" />
    <path
        d="M160.75 352.293L152.79 346.727L148.691 353.97L149.817 387.339C149.817 387.339 152.158 385.684 151.99 385.27C151.822 384.856 151.654 351.952 151.654 351.952L160.365 356.815L160.75 352.293Z"
        fill="white" />
    <path opacity="0.6"
        d="M160.746 352.289L152.786 346.723L148.688 353.966L149.813 387.335C149.813 387.335 152.154 385.68 151.986 385.266C151.818 384.852 151.65 351.948 151.65 351.948L160.361 356.811L160.746 352.289Z"
        fill="#018762" />
    <path
        d="M160.75 352.293L152.79 346.727L148.691 353.97L149.817 387.339C149.817 387.339 152.158 385.684 151.99 385.27C151.822 384.856 151.654 351.952 151.654 351.952L160.365 356.815L160.75 352.293Z"
        stroke="#263238" stroke-width="0.663535" stroke-linecap="round" stroke-linejoin="round" />
    <path
        d="M152.225 402.245C151.992 402.261 151.757 402.261 151.524 402.245C146.517 401.666 143.435 395.24 142.102 382.585C140.986 372.073 141.203 358.342 142.714 343.939C144.225 329.535 146.862 316.074 150.131 306.068C154.082 294.034 158.417 288.478 163.405 289.036C168.392 289.595 171.484 296.041 172.827 308.696C173.943 319.209 173.716 332.929 172.205 347.343C170.694 361.756 168.066 375.197 164.797 385.203C161.054 396.647 156.936 402.245 152.225 402.245ZM162.635 296.352C159.425 298.421 152.66 315.463 149.588 344.704C146.517 373.945 149.588 392.146 152.294 394.878C155.504 392.808 162.269 375.767 165.331 346.515C168.402 317.274 165.38 299.073 162.635 296.352V296.352Z"
        fill="#263238" />
    <path
        d="M160.454 292.315C154.202 291.601 146.627 314.748 143.585 344.051C140.543 373.354 143.081 397.618 149.333 398.343C155.585 399.067 163.16 375.92 166.192 346.607C169.224 317.293 166.656 293.039 160.454 292.315ZM151.051 386.03C147.96 380.856 147.032 364.114 149.076 344.641C151.121 325.167 155.486 309.088 159.585 304.69C162.666 309.864 163.594 326.606 161.56 346.079C159.525 365.552 155.101 381.632 151.012 386.03H151.051Z"
        fill="white" />
    <path opacity="0.4"
        d="M149.034 344.637C146.99 364.111 147.918 380.852 151.01 386.026C150.732 386.398 150.376 386.698 149.971 386.904C149.565 387.111 149.12 387.217 148.669 387.216C144.017 386.678 142.22 367.391 144.659 344.13C147.099 320.87 152.856 302.462 157.498 302.99C157.938 303.092 158.35 303.298 158.703 303.592C159.055 303.886 159.339 304.26 159.533 304.687C155.444 309.084 151.079 325.164 149.034 344.637Z"
        fill="#018762" />
    <path
        d="M160.454 292.315C154.202 291.601 146.627 314.748 143.585 344.051C140.543 373.354 143.081 397.618 149.333 398.343C155.585 399.067 163.16 375.92 166.192 346.607C169.224 317.293 166.656 293.039 160.454 292.315ZM151.051 386.03C147.96 380.856 147.032 364.114 149.076 344.641C151.121 325.167 155.486 309.088 159.585 304.69C162.666 309.864 163.594 326.606 161.56 346.079C159.525 365.552 155.101 381.632 151.012 386.03H151.051Z"
        stroke="#263238" stroke-width="0.663535" stroke-linecap="round" stroke-linejoin="round" />
    <path d="M153.344 306.844C154.568 304.537 157.423 300.812 159.536 304.682" stroke="#263238" stroke-width="0.663535"
        stroke-linecap="round" stroke-linejoin="round" />
    <path d="M149.383 317.437C149.67 316.402 149.976 315.439 150.293 314.445" stroke="#263238" stroke-width="0.663535"
        stroke-linecap="round" stroke-linejoin="round" />
    <path d="M145.391 337.657C146.118 332.085 147.133 326.558 148.432 321.102" stroke="#263238" stroke-width="0.663535"
        stroke-linecap="round" stroke-linejoin="round" />
    <path d="M143.425 365.237C143.302 357.409 143.775 349.582 144.839 341.832" stroke="#263238" stroke-width="0.663535"
        stroke-linecap="round" stroke-linejoin="round" />
    <path d="M143.997 373.269C143.829 371.841 143.7 370.403 143.602 368.965" stroke="#263238" stroke-width="0.663535"
        stroke-linecap="round" stroke-linejoin="round" />
    <path d="M151.004 386.027C147.538 391.356 144.852 378.784 144.496 376.715" stroke="#263238" stroke-width="0.663535"
        stroke-linecap="round" stroke-linejoin="round" />
    <path
        d="M151.208 338.574L148.739 333.152C148.154 334.253 147.75 335.45 147.544 336.691L149.124 344.648L145.934 352.057C145.877 353.311 146.02 354.567 146.359 355.771L149.895 351.043L150.151 344.762L151.208 338.574Z"
        fill="white" />
    <path opacity="0.6"
        d="M151.2 338.578L148.731 333.156C148.146 334.257 147.742 335.453 147.536 336.695L149.117 344.652L145.927 352.061C145.869 353.315 146.012 354.571 146.351 355.775L149.887 351.047L150.144 344.766L151.2 338.578Z"
        fill="#92E3A9" />
    <path
        d="M151.208 338.574L148.739 333.152C148.154 334.253 147.75 335.45 147.544 336.691L149.124 344.648L145.934 352.057C145.877 353.311 146.02 354.567 146.359 355.771L149.895 351.043L150.151 344.762L151.208 338.574Z"
        stroke="#263238" stroke-width="0.663535" stroke-linecap="round" stroke-linejoin="round" />
    <path
        d="M153.961 345.202C153.31 351.41 151.404 356.356 149.715 356.16C148.026 355.963 147.177 350.738 147.838 344.499C148.5 338.259 150.396 333.344 152.085 333.541C153.774 333.737 154.613 338.952 153.961 345.202Z"
        fill="white" />
    <path opacity="0.4"
        d="M153.976 345.203C153.324 351.412 151.418 356.358 149.729 356.161C148.663 356.037 147.922 353.905 147.754 350.77C147.918 350.975 148.152 351.104 148.406 351.132C150.095 351.329 152.001 346.414 152.662 340.175C152.891 338.093 152.937 335.994 152.801 333.904C153.986 335.229 154.529 339.823 153.976 345.203Z"
        fill="#92E3A9" />
    <path
        d="M153.961 345.202C153.31 351.41 151.404 356.356 149.715 356.16C148.026 355.963 147.177 350.738 147.838 344.499C148.5 338.259 150.396 333.344 152.085 333.541C153.774 333.737 154.613 338.952 153.961 345.202Z"
        stroke="#263238" stroke-width="0.663535" stroke-linecap="round" stroke-linejoin="round" />
    <path
        d="M158.885 300.758L156.988 300.541L157.403 296.578L159.299 296.795C159.801 296.855 160.259 297.121 160.574 297.534C160.888 297.947 161.034 298.474 160.978 298.999V298.999C160.952 299.26 160.878 299.512 160.758 299.741C160.639 299.971 160.477 300.173 160.282 300.337C160.087 300.501 159.864 300.622 159.624 300.695C159.384 300.767 159.132 300.789 158.885 300.758Z"
        fill="#018762" stroke="#263238" stroke-width="0.663535" stroke-linecap="round" stroke-linejoin="round" />
    <path
        d="M160.453 347.954L158.566 347.736L158.981 343.773L160.868 343.991C161.117 344.019 161.358 344.099 161.578 344.225C161.797 344.351 161.991 344.521 162.148 344.726C162.305 344.931 162.422 345.166 162.492 345.418C162.562 345.67 162.584 345.934 162.556 346.195V346.195C162.529 346.455 162.453 346.708 162.333 346.937C162.212 347.167 162.05 347.37 161.854 347.533C161.659 347.697 161.434 347.818 161.194 347.89C160.953 347.962 160.701 347.984 160.453 347.954V347.954Z"
        fill="#018762" stroke="#263238" stroke-width="0.663535" stroke-linecap="round" stroke-linejoin="round" />
    <path
        d="M150.74 391.518L148.844 391.301L149.259 387.338L151.155 387.555C151.404 387.583 151.644 387.663 151.864 387.789C152.083 387.916 152.276 388.086 152.432 388.291C152.588 388.496 152.704 388.731 152.773 388.983C152.842 389.235 152.863 389.499 152.834 389.759C152.807 390.019 152.731 390.27 152.611 390.499C152.491 390.728 152.329 390.93 152.135 391.093C151.94 391.257 151.717 391.378 151.478 391.451C151.238 391.524 150.988 391.547 150.74 391.518V391.518Z"
        fill="#018762" stroke="#263238" stroke-width="0.663535" stroke-linecap="round" stroke-linejoin="round" />
    <path
        d="M154.272 291.606C148.03 290.882 140.446 314.029 137.404 343.342C134.362 372.656 136.91 396.92 143.152 397.645C149.393 398.369 156.978 375.222 160.02 345.909C163.062 316.595 160.524 292.331 154.272 291.606ZM143.408 394.84C142.826 394.685 140.446 391.798 139.32 380.354C138.332 370.359 138.549 357.311 139.991 343.611C141.433 329.912 143.942 317.112 146.905 307.582C150.411 296.645 153.314 294.379 153.897 294.369C154.48 294.359 156.86 297.38 157.976 308.855C158.963 318.851 158.746 331.909 157.304 345.608C155.862 359.308 153.354 372.108 150.391 381.637C146.934 392.543 144.04 394.82 143.448 394.84H143.408Z"
        fill="#018762" stroke="#263238" stroke-width="0.663535" stroke-linecap="round" stroke-linejoin="round" />
    <path
        d="M258.456 367.721C256.5 369.651 254.183 371.134 251.652 372.078C248.689 373.009 239.474 372.947 239.474 372.947L226.536 373.868C226.208 373.216 225.968 372.52 225.825 371.798C224.611 365.921 227.188 355.801 227.188 355.801L241.015 352.314C241.015 352.314 241.43 354.384 241.953 356.298C242.378 357.923 242.882 359.475 243.277 359.713C244.146 360.271 256.659 363.044 257.538 364.886C258.033 365.752 258.346 366.719 258.456 367.721Z"
        fill="white" />
    <path opacity="0.4"
        d="M235.958 361.807C236.235 364.145 229.45 369.236 225.825 371.771C224.611 365.894 227.188 355.774 227.188 355.774L241.015 352.287C241.015 352.287 241.43 354.357 241.953 356.271C239.218 357.678 235.721 359.861 235.958 361.807Z"
        fill="#92E3A9" />
    <path
        d="M258.456 367.721C256.5 369.651 254.183 371.134 251.652 372.078C248.689 373.009 239.474 372.947 239.474 372.947L226.536 373.868C226.208 373.216 225.968 372.52 225.825 371.798C224.611 365.921 227.188 355.801 227.188 355.801L241.015 352.314C241.015 352.314 241.43 354.384 241.953 356.298C242.378 357.923 242.882 359.475 243.277 359.713C244.146 360.271 256.659 363.044 257.538 364.886C258.033 365.752 258.346 366.719 258.456 367.721Z"
        stroke="#263238" stroke-width="0.663535" stroke-linecap="round" stroke-linejoin="round" />
    <path
        d="M237.125 359.148C235.683 360.41 238.784 361.797 238.784 361.797C238.784 361.797 243.663 359.872 244.759 360.182L243.139 357.327C240.987 357.114 238.837 357.765 237.125 359.148V359.148Z"
        fill="white" stroke="#263238" stroke-width="0.663535" stroke-linecap="round" stroke-linejoin="round" />
    <path
        d="M242.32 363.073C242.32 363.073 245.658 359.752 246.883 359.534C248.108 359.317 250.439 360.89 250.439 360.89C250.439 360.89 247.318 362.607 246.972 363.787L242.32 363.073Z"
        fill="white" stroke="#263238" stroke-width="0.663535" stroke-linecap="round" stroke-linejoin="round" />
    <path
        d="M214.106 373.265L193.85 375.738C193.014 374.334 192.481 372.756 192.29 371.113C192.231 369.426 195.638 362.949 196.981 359.907C197.229 359.437 197.409 358.932 197.514 358.406C197.514 357.31 202.452 349.715 202.452 349.715L216.121 351.298C216.121 351.298 215.519 355.251 215.262 357.32C215.064 358.862 215.933 361.945 216.556 364.936C216.773 365.97 216.961 367.005 217.069 367.916C217.494 371.589 214.106 373.265 214.106 373.265Z"
        fill="white" />
    <path
        d="M214.106 360.244C214.106 360.244 204.882 358.174 200.378 360.244C195.875 362.313 197.692 358.982 199.262 357.326C200.833 355.67 212.101 356.188 213.672 357.326L214.106 360.244Z"
        fill="white" stroke="#263238" stroke-width="0.663535" stroke-linecap="round" stroke-linejoin="round" />
    <path
        d="M213.187 362.334C212.496 361.972 206.225 361.186 203.874 360.896C201.523 360.606 196.961 362.065 196.803 364.259C196.645 366.452 199.766 364.435 201.612 364.259C203.459 364.083 214.106 365.294 214.106 365.294L213.187 362.334Z"
        fill="white" stroke="#263238" stroke-width="0.663535" stroke-linecap="round" stroke-linejoin="round" />
    <path opacity="0.4"
        d="M216.573 364.939C214.844 362.942 211.19 359.455 206.272 358.576C203.119 358.099 199.902 358.562 196.988 359.911C197.236 359.441 197.416 358.935 197.522 358.41C197.522 357.314 202.46 349.719 202.46 349.719L216.128 351.302C216.128 351.302 215.526 355.255 215.269 357.324C215.081 358.866 215.951 361.949 216.573 364.939Z"
        fill="#92E3A9" />
    <path
        d="M214.106 373.265L193.85 375.738C193.014 374.334 192.481 372.756 192.29 371.113C192.231 369.426 195.638 362.949 196.981 359.907C197.229 359.437 197.409 358.932 197.514 358.406C197.514 357.31 202.452 349.715 202.452 349.715L216.121 351.298C216.121 351.298 215.519 355.251 215.262 357.32C215.064 358.862 215.933 361.945 216.556 364.936C216.773 365.97 216.961 367.005 217.069 367.916C217.494 371.589 214.106 373.265 214.106 373.265Z"
        stroke="#263238" stroke-width="0.663535" stroke-linecap="round" stroke-linejoin="round" />
    <path
        d="M248.342 303.499C247.759 306.106 247.127 309.304 246.534 312.605C245.033 320.882 243.72 329.822 243.473 331.799C243.127 334.551 241.379 345.084 242.08 346.543C242.781 348.002 243.473 354.19 243.473 354.19C241.648 353.825 239.799 353.611 237.942 353.548C234.762 353.838 225.715 357.315 225.715 357.315C225.715 357.315 223.967 352.379 225.715 348.002C226.758 345.516 227.001 342.741 226.407 340.097L228.49 313.774C226.762 322.238 223.967 334.282 223.967 334.282L219.454 340.097V340.211L217.083 353.859C217.083 353.859 210.22 356.125 207.918 355.752C205.795 355.411 200.373 351.458 200.373 351.458L204.511 343.253C204.39 340.256 204.483 337.254 204.788 334.272C205.844 325.125 206.97 315.564 207.543 310.763C207.541 310.732 207.541 310.701 207.543 310.67C207.77 308.745 207.908 307.617 207.908 307.617C207.908 307.617 187.712 304.575 185.193 298.356C183.583 294.362 183.583 286.664 183.761 281.687C183.821 280.311 184.295 278.989 185.114 277.912C185.934 276.834 187.057 276.055 188.324 275.686C194.509 273.86 200.814 272.511 207.188 271.65L207.869 271.547C209.844 269.695 217.291 266.973 219.375 267.232C221.872 267.784 224.308 268.606 226.644 269.684L227.128 269.912C236.085 269.053 238.515 270.885 238.515 270.885C238.515 270.885 239.334 271.247 240.49 271.816C243.018 273.057 247.196 275.282 248.253 276.989C251.778 282.556 250.416 294.383 248.342 303.499Z"
        fill="#018762" />
    <path opacity="0.2"
        d="M207.547 310.689C207.774 308.763 207.913 307.635 207.913 307.635C207.86 308.66 207.738 309.681 207.547 310.689V310.689Z"
        fill="black" fill-opacity="0.7" />
    <path opacity="0.2"
        d="M207.912 307.637C207.912 307.637 187.716 304.595 185.197 298.376C183.587 294.382 183.587 286.684 183.765 281.707C183.825 280.33 184.299 279.009 185.118 277.931C185.938 276.854 187.061 276.075 188.328 275.705C194.513 273.879 200.818 272.53 207.191 271.67C201.364 275.974 195.903 279.782 195.903 279.782L196.752 275.954C196.752 275.954 187.745 284.604 187.014 288.422C184.575 301.253 199.557 306.602 198.165 303.012C196.772 299.421 200.081 290.729 200.327 292.302C200.495 293.337 202.234 296.193 203.024 297.476C202.668 295.51 204.742 290.316 204.742 290.316C204.696 293.311 205.357 296.272 206.668 298.935C207.755 301.686 208.182 304.673 207.912 307.637V307.637Z"
        fill="black" fill-opacity="0.7" />
    <path opacity="0.2"
        d="M226.695 269.701L227.179 269.928C236.137 269.07 238.566 270.901 238.566 270.901C238.566 270.901 239.386 271.263 240.542 271.832C237.747 271.832 234.547 272.67 232.503 275.775C230.812 273.508 228.862 271.468 226.695 269.701V269.701Z"
        fill="black" fill-opacity="0.7" />
    <path opacity="0.2"
        d="M243.398 331.808C243.052 334.561 241.304 345.094 242.005 346.553C242.706 348.012 243.398 354.2 243.398 354.2C241.573 353.835 239.724 353.62 237.867 353.558C234.687 353.848 225.64 357.325 225.64 357.325C225.64 357.325 223.892 352.389 225.64 348.012C226.683 345.525 226.926 342.751 226.332 340.107L228.416 313.784C226.687 322.248 223.892 334.292 223.892 334.292L219.379 340.107V340.221C219.379 337.841 219.379 335.782 219.379 334.271C219.675 326.676 230.727 280.331 232.988 281.976C235.25 283.622 233.66 287.75 233.917 292.427C234.173 297.104 236.82 317.188 236.652 321.979C236.484 326.769 233.917 320.282 233.917 320.282C233.917 320.282 232.336 340.717 232.534 344.856C232.732 348.995 235.684 342.187 238.539 340.904C241.393 339.621 240.514 328.487 240.79 327.225C240.889 326.676 243.536 320.033 246.538 312.614C244.998 320.882 243.684 329.832 243.398 331.808Z"
        fill="black" fill-opacity="0.7" />
    <path
        d="M248.342 303.499C247.759 306.106 247.127 309.304 246.534 312.605C245.033 320.882 243.72 329.822 243.473 331.799C243.127 334.551 241.379 345.084 242.08 346.543C242.781 348.002 243.473 354.19 243.473 354.19C241.648 353.825 239.799 353.611 237.942 353.548C234.762 353.838 225.715 357.315 225.715 357.315C225.715 357.315 223.967 352.379 225.715 348.002C226.758 345.516 227.001 342.741 226.407 340.097L228.49 313.774C226.762 322.238 223.967 334.282 223.967 334.282L219.454 340.097V340.211L217.083 353.859C217.083 353.859 210.22 356.125 207.918 355.752C205.795 355.411 200.373 351.458 200.373 351.458L204.511 343.253C204.39 340.256 204.483 337.254 204.788 334.272C205.844 325.125 206.97 315.564 207.543 310.763C207.541 310.732 207.541 310.701 207.543 310.67C207.77 308.745 207.908 307.617 207.908 307.617C207.908 307.617 187.712 304.575 185.193 298.356C183.583 294.362 183.583 286.664 183.761 281.687C183.821 280.311 184.295 278.989 185.114 277.912C185.934 276.834 187.057 276.055 188.324 275.686C194.509 273.86 200.814 272.511 207.188 271.65L207.869 271.547C209.844 269.695 217.291 266.973 219.375 267.232C221.872 267.784 224.308 268.606 226.644 269.684L227.128 269.912C236.085 269.053 238.515 270.885 238.515 270.885C238.515 270.885 239.334 271.247 240.49 271.816C243.018 273.057 247.196 275.282 248.253 276.989C251.778 282.556 250.416 294.383 248.342 303.499Z"
        stroke="#263238" stroke-width="0.663535" stroke-linecap="round" stroke-linejoin="round" />
    <path
        d="M227.188 269.932C229.864 272.125 233.577 274.919 234.387 278.934C235.197 282.948 231.286 300.797 228.462 313.783"
        stroke="#263238" stroke-width="0.663535" stroke-linecap="round" stroke-linejoin="round" />
    <path
        d="M207.923 307.635C208.911 302.12 205.257 295.591 204.793 295.219C204.328 294.846 204.091 291.08 205.721 288.41"
        stroke="#263238" stroke-width="0.663535" stroke-linecap="round" stroke-linejoin="round" />
    <path
        d="M200.371 294.492C200.371 294.492 200.835 299.966 201.882 301.311C202.929 302.656 207.314 303.453 207.314 303.453"
        stroke="#263238" stroke-width="0.663535" stroke-linecap="round" stroke-linejoin="round" />
    <path d="M207.924 271.566C207.924 271.566 202.473 276.864 202.473 278.323" stroke="#263238" stroke-width="0.663535"
        stroke-linecap="round" stroke-linejoin="round" />
    <path d="M235.554 272.85C234.398 273.29 233.352 273.998 232.492 274.919" stroke="#263238" stroke-width="0.663535"
        stroke-linecap="round" stroke-linejoin="round" />
    <path d="M236.594 324.056C234.846 321.5 231.34 300.33 231.34 300.33" stroke="#263238" stroke-width="0.663535"
        stroke-linecap="round" stroke-linejoin="round" />
    <path d="M242.05 346.548C239.611 345.213 229.863 349.714 229.863 349.714" stroke="#263238" stroke-width="0.663535"
        stroke-linecap="round" stroke-linejoin="round" />
    <path
        d="M219.428 340.107C219.428 340.107 212.218 344.246 210.944 343.998C209.67 343.75 207.922 340.107 207.922 340.107"
        stroke="#263238" stroke-width="0.663535" stroke-linecap="round" stroke-linejoin="round" />
    <path
        d="M216.463 369.574H200.661C196.71 369.574 191.654 372.803 189.273 376.817C188.157 378.69 188.74 380.211 190.587 380.211H213.845C214.925 380.103 215.968 379.742 216.896 379.154C217.824 378.567 218.614 377.768 219.208 376.817C221.608 372.803 220.364 369.574 216.463 369.574Z"
        fill="#263238" />
    <path
        d="M251.354 369.574H235.552C231.602 369.574 226.545 372.803 224.175 376.817C223.049 378.69 223.632 380.211 225.479 380.211H248.737C249.818 380.104 250.863 379.743 251.793 379.156C252.723 378.568 253.515 377.769 254.11 376.817C256.5 372.803 255.255 369.574 251.354 369.574Z"
        fill="#263238" />
    <path
        d="M158.156 261.123C160.201 268.076 165.978 267.621 165.978 267.621L176.961 259.343C176.961 259.343 176.101 254.935 170.176 253.135"
        fill="#A0616A" />
    <path
        d="M158.156 261.123C160.201 268.076 165.978 267.621 165.978 267.621L176.961 259.343C176.961 259.343 176.101 254.935 170.176 253.135"
        stroke="#263238" stroke-width="0.663535" stroke-linecap="round" stroke-linejoin="round" />
    <path
        d="M168.212 259.96C171.125 257.891 176.113 258.636 176.113 258.636C177.673 258.449 179.895 257.529 181.051 258.636C182.206 259.743 182.621 260.643 184.339 263.199C186.058 265.755 182.424 270.939 182.424 270.939C182.424 270.939 179.994 272.035 180.31 270.111C180.31 270.111 179.49 273.401 177.001 271.766C177.001 271.766 176.132 272.801 174.562 271.766C174.346 271.98 174.087 272.141 173.804 272.235C173.521 272.33 173.221 272.356 172.926 272.313C172.632 272.269 172.351 272.156 172.104 271.983C171.857 271.809 171.651 271.58 171.5 271.311L171.412 269.449C171.412 269.449 164.113 269.904 165.071 263.561"
        fill="#A0616A" />
    <path
        d="M168.212 259.96C171.125 257.891 176.113 258.636 176.113 258.636C177.673 258.449 179.895 257.529 181.051 258.636C182.206 259.743 182.621 260.643 184.339 263.199C186.058 265.755 182.424 270.939 182.424 270.939C182.424 270.939 179.994 272.035 180.31 270.111C180.31 270.111 179.49 273.401 177.001 271.766C177.001 271.766 176.132 272.801 174.562 271.766C174.346 271.98 174.087 272.141 173.804 272.235C173.521 272.33 173.221 272.356 172.926 272.313C172.632 272.269 172.351 272.156 172.104 271.983C171.857 271.809 171.651 271.58 171.5 271.311L171.412 269.449C171.412 269.449 164.113 269.904 165.071 263.561"
        stroke="#263238" stroke-width="0.663535" stroke-linecap="round" stroke-linejoin="round" />
    <path
        d="M180.281 270.115C180.281 270.115 181.013 268.128 181.576 266.793C182.139 265.458 180.281 261.857 180.281 261.857"
        stroke="#263238" stroke-width="0.663535" stroke-linecap="round" stroke-linejoin="round" />
    <path
        d="M176.971 271.773C176.863 271.4 177.96 266.775 177.802 265.989C177.337 264.919 176.767 263.903 176.102 262.957"
        stroke="#263238" stroke-width="0.663535" stroke-linecap="round" stroke-linejoin="round" />
    <path
        d="M173.137 264.41C173.483 265.145 174.59 266.811 174.53 267.711C174.471 268.611 174.125 271.343 174.53 271.767"
        stroke="#263238" stroke-width="0.663535" stroke-linecap="round" stroke-linejoin="round" />
    <path
        d="M171.315 270.943C171.28 270.185 171.323 269.425 171.443 268.677C170.828 268.177 170.376 267.49 170.148 266.711"
        stroke="#263238" stroke-width="0.663535" stroke-linecap="round" stroke-linejoin="round" />
    <path
        d="M108.842 327.692C106.761 336.343 105.236 345.13 104.279 353.995C102.709 367.601 102.383 378.538 102.383 378.538L94.3632 382.336C94.3632 382.336 92.3287 365.273 92.388 354.398C92.388 353.643 92.388 352.918 92.388 352.225C92.6854 345.205 93.5443 338.224 94.9558 331.355L96.299 300.634L96.3977 298.43L106.57 297.623L106.728 299.755L108.842 327.692Z"
        fill="#FFB8B8" stroke="#263238" stroke-width="0.663535" stroke-linecap="round" stroke-linejoin="round" />
    <path
        d="M108.851 327.688C106.77 336.339 105.245 345.126 104.288 353.991C100.339 353.077 96.2342 353.212 92.3477 354.384C92.3477 353.628 92.3477 352.904 92.3477 352.211C92.645 345.191 93.504 338.21 94.9155 331.341L96.2586 300.62L106.688 299.74L108.851 327.688Z"
        fill="#263238" />
    <path
        d="M145.62 378.488L138.539 383.951C138.539 383.951 134.697 372.414 132.198 362.408C131.527 359.728 130.954 357.152 130.579 354.937C129.436 348.013 128.851 341.001 128.831 333.974L126.855 316.642L136.633 313.621L141.778 327.352C141.465 336.45 141.745 345.559 142.618 354.617C143.754 368.006 145.62 378.488 145.62 378.488Z"
        fill="#FFB8B8" stroke="#263238" stroke-width="0.663535" stroke-linecap="round" stroke-linejoin="round" />
    <path
        d="M142.568 354.617C139.356 357.577 135.865 360.187 132.149 362.408C131.478 359.728 130.905 357.152 130.529 354.937C129.403 348.012 128.835 340.999 128.831 333.974L126.855 316.642L136.633 313.621L141.778 327.352C141.448 336.448 141.712 345.558 142.568 354.617V354.617Z"
        fill="#263238" />
    <path
        d="M140.818 80.5148C140.818 80.5148 141.628 83.2568 140.126 95.0733L147.929 90.1584C147.929 85.5953 147.929 81.7565 148.304 80.9494C149.153 78.942 149.104 69.8779 148.669 68.5328C148.568 68.1586 148.379 67.8173 148.118 67.5405C147.857 67.2637 147.534 67.0605 147.178 66.9496C147.178 66.9496 144.393 65.8425 143.603 65.4079C142.617 65.0395 141.592 64.7963 140.551 64.6836L138.132 67.3842L138.299 69.1019C138.299 69.1019 135.959 69.5261 136.087 70.9126C136.098 72.535 136.253 74.1527 136.551 75.7448C137.035 77.5762 140.818 80.5148 140.818 80.5148Z"
        fill="#FFB8B8" stroke="#263238" stroke-width="0.663535" stroke-linecap="round" stroke-linejoin="round" />
    <path
        d="M138.301 69.0977C139.395 69.6399 140.528 70.093 141.688 70.4531C142.103 70.4014 142.054 72.057 141.441 72.2846C140.829 72.5122 139.16 73.3193 139.16 73.3193C139.16 73.3193 141.135 73.3193 141.609 76.1855"
        stroke="#263238" stroke-width="0.663535" stroke-linecap="round" stroke-linejoin="round" />
    <path
        d="M139.707 69.7103C140.073 69.0575 140.472 68.4255 140.902 67.8168C141.414 67.3166 141.955 66.8501 142.522 66.4199"
        stroke="#263238" stroke-width="0.663535" stroke-linecap="round" stroke-linejoin="round" />
    <path
        d="M140.387 72.7468C140.515 73.9161 142.234 74.6611 142.648 73.8747C142.648 73.8747 143.636 74.7542 144.268 74.6921C144.875 74.4969 145.513 74.4301 146.145 74.4955C147.073 74.6404 147.488 72.4261 147.31 72.0122C147.132 71.5983 146.401 72.1053 146.401 72.1053"
        stroke="#263238" stroke-width="0.663535" stroke-linecap="round" stroke-linejoin="round" />
    <path
        d="M145.243 74.4734C144.558 73.5153 144.171 72.359 144.137 71.1623C144.622 70.1202 145.237 69.1496 145.964 68.2754"
        stroke="#263238" stroke-width="0.663535" stroke-linecap="round" stroke-linejoin="round" />
    <path d="M142.659 73.8773C142.659 73.8773 142.303 72.1899 141.996 71.3203" stroke="#263238" stroke-width="0.663535"
        stroke-linecap="round" stroke-linejoin="round" />
    <path d="M141.672 70.448C141.672 70.448 142.996 67.8393 143.707 67.4355" stroke="#263238" stroke-width="0.663535"
        stroke-linecap="round" stroke-linejoin="round" />
    <path
        d="M140.816 80.5137C141.074 80.733 141.382 80.8771 141.71 80.9317C142.038 80.9862 142.374 80.9491 142.684 80.8242"
        stroke="#263238" stroke-width="0.663535" stroke-linecap="round" stroke-linejoin="round" />
    <path d="M144.77 81.8184L146.223 82.2014" stroke="#263238" stroke-width="0.663535" stroke-linecap="round"
        stroke-linejoin="round" />
    <path d="M58.4012 264.18L17.5039 402.232H19.331L61.5319 267.77L58.4012 264.18Z" fill="#757575" stroke="#263238"
        stroke-width="0.663535" stroke-linecap="round" stroke-linejoin="round" />
    <path
        d="M87.2362 119.997C87.2362 119.997 79.6118 118.455 77.528 126.526C75.4441 134.597 79.0983 155.498 77.528 160.071C75.9576 164.645 78.239 170.864 82.0512 170.191C82.0512 170.191 80.2044 168.753 81.4784 165.866C82.7525 162.979 85.6067 157.112 85.3499 152.539C85.3499 152.539 86.3375 161.158 83.7796 165.079C83.7796 165.079 89.33 155.467 88.3424 146.713C87.3547 137.959 87.2362 119.997 87.2362 119.997Z"
        fill="#263238" />
    <path
        d="M108.291 121.179C108.291 121.179 106.78 113.532 96.4392 114.515C86.0989 115.498 78.6621 124.055 82.5039 136.968C86.3458 149.882 94.8294 154.755 101.17 151.641C107.51 148.526 110.157 151.455 113.11 146.095C116.063 140.735 113.782 125.752 108.291 121.179Z"
        fill="#263238" />
    <path
        d="M148.586 130.201C148.586 130.325 146.413 135.271 143.391 142.058C139.796 150.16 134.966 160.87 131.016 169.189C127.658 176.277 124.942 181.605 124.191 182.081L126.542 145.256C130.878 138.736 134.353 131.632 136.872 124.137C138.176 119.853 140.122 87.4355 140.122 87.4355C143.717 88.6565 148.635 87.4355 148.635 87.4355C148.635 87.4355 149.573 124.21 148.586 130.201Z"
        fill="#018762" />
    <path opacity="0.2"
        d="M143.361 142.055C139.766 150.157 134.937 160.866 130.986 169.185C130.245 168.057 129.781 167.312 129.781 167.312C129.781 167.312 133.732 156.054 133.297 149.722C132.863 143.389 136.616 147.063 134.858 154.627C134.858 154.616 139.529 147.28 143.361 142.055Z"
        fill="black" fill-opacity="0.7" />
    <path
        d="M148.586 130.201C148.586 130.325 146.413 135.271 143.391 142.058C139.796 150.16 134.966 160.87 131.016 169.189C127.658 176.277 124.942 181.605 124.191 182.081L126.542 145.256C130.878 138.736 134.353 131.632 136.872 124.137C138.176 119.853 140.122 87.4355 140.122 87.4355C143.717 88.6565 148.635 87.4355 148.635 87.4355C148.635 87.4355 149.573 124.21 148.586 130.201Z"
        stroke="#263238" stroke-width="0.663535" stroke-linecap="round" stroke-linejoin="round" />
    <path
        d="M136.004 377.945C136.004 377.945 139.243 375.172 146.621 375.72C146.621 375.72 148.171 385.374 149.475 388.137C150.779 390.9 156.527 395.804 157.593 396.642C158.66 397.48 158.966 400.409 158.966 400.409H136.745C136.583 396.264 136.735 392.112 137.199 387.992L136.004 377.945Z"
        fill="white" />
    <path opacity="0.4"
        d="M136.004 377.947C136.004 377.947 139.243 375.174 146.621 375.722C146.621 375.722 148.171 385.376 149.475 388.139C150.779 390.902 156.527 395.806 157.593 396.644C158.66 397.482 158.966 400.411 158.966 400.411H136.745C136.583 396.266 136.735 392.114 137.199 387.994L136.004 377.947Z"
        fill="#018762" />
    <path
        d="M136.004 377.945C136.004 377.945 139.243 375.172 146.621 375.72C146.621 375.72 148.171 385.374 149.475 388.137C150.779 390.9 156.527 395.804 157.593 396.642C158.66 397.48 158.966 400.409 158.966 400.409H136.745C136.583 396.264 136.735 392.112 137.199 387.992L136.004 377.945Z"
        stroke="#263238" stroke-width="0.663535" stroke-linecap="round" stroke-linejoin="round" />
    <path
        d="M140.691 379.193C140.691 379.193 142.163 388.071 143.654 390.379C144.462 391.668 145.418 392.849 146.499 393.897C146.499 393.897 148.02 393.897 146.736 396.142"
        stroke="#263238" stroke-width="0.663535" stroke-linecap="round" stroke-linejoin="round" />
    <path d="M144.742 393.073C144.742 393.073 149.157 390.082 152.772 392.338" stroke="#263238" stroke-width="0.663535"
        stroke-linecap="round" stroke-linejoin="round" />
    <path
        d="M143.371 391.029C144.344 390.195 145.507 389.64 146.747 389.417C147.986 389.194 149.259 389.311 150.442 389.757"
        stroke="#263238" stroke-width="0.663535" stroke-linecap="round" stroke-linejoin="round" />
    <path
        d="M141.672 387.994C142.655 387.13 143.848 386.57 145.118 386.376C146.388 386.183 147.684 386.363 148.862 386.897"
        stroke="#263238" stroke-width="0.663535" stroke-linecap="round" stroke-linejoin="round" />
    <path d="M140.746 384.077C140.746 384.077 144.795 381.522 148.143 383.456" stroke="#263238" stroke-width="0.663535"
        stroke-linecap="round" stroke-linejoin="round" />
    <path
        d="M136.738 400.408L136.936 402.209H139.484C140.13 401.81 140.867 401.6 141.617 401.6C142.367 401.6 143.104 401.81 143.75 402.209H155.74C156.977 402.211 158.196 401.902 159.295 401.308L158.95 400.408H136.738Z"
        fill="#018762" stroke="#263238" stroke-width="0.663535" stroke-linecap="round" stroke-linejoin="round" />
    <path
        d="M92.7566 379.093C92.7566 379.093 96.2824 376.455 103.62 377.024C103.62 377.024 104.154 386.212 105.151 388.892C106.149 391.572 111.393 396.187 112.361 396.984C113.329 397.78 113.348 400.553 113.348 400.553H91.1172C91.3975 396.575 91.9854 392.626 92.8751 388.747L92.7566 379.093Z"
        fill="white" />
    <path opacity="0.4"
        d="M92.7488 379.091C92.7488 379.091 96.2746 376.453 103.613 377.022C103.613 377.022 104.146 386.21 105.143 388.89C106.141 391.57 111.385 396.185 112.353 396.982C113.321 397.778 113.341 400.551 113.341 400.551H91.1094C91.3897 396.573 91.9776 392.624 92.8673 388.745L92.7488 379.091Z"
        fill="#018762" />
    <path
        d="M92.7566 379.093C92.7566 379.093 96.2824 376.455 103.62 377.024C103.62 377.024 104.154 386.212 105.151 388.892C106.149 391.572 111.393 396.187 112.361 396.984C113.329 397.78 113.348 400.553 113.348 400.553H91.1172C91.3975 396.575 91.9854 392.626 92.8751 388.747L92.7566 379.093Z"
        stroke="#263238" stroke-width="0.663535" stroke-linecap="round" stroke-linejoin="round" />
    <path
        d="M97.332 380.283C97.332 380.283 97.8555 388.747 99.1097 390.951C99.7769 392.18 100.605 393.305 101.569 394.293C101.569 394.293 103.09 394.293 101.569 396.435"
        stroke="#263238" stroke-width="0.663535" stroke-linecap="round" stroke-linejoin="round" />
    <path d="M99.8711 393.505C99.8711 393.505 104.612 390.649 107.979 392.801" stroke="#263238" stroke-width="0.663535"
        stroke-linecap="round" stroke-linejoin="round" />
    <path
        d="M98.7305 391.567C99.7537 390.783 100.939 390.264 102.191 390.052C103.442 389.839 104.723 389.94 105.93 390.346"
        stroke="#263238" stroke-width="0.663535" stroke-linecap="round" stroke-linejoin="round" />
    <path d="M97.332 388.62C97.332 388.62 100.887 385.723 104.64 387.585" stroke="#263238" stroke-width="0.663535"
        stroke-linecap="round" stroke-linejoin="round" />
    <path d="M96.8516 384.941C96.8516 384.941 101.167 382.51 104.308 384.352" stroke="#263238" stroke-width="0.663535"
        stroke-linecap="round" stroke-linejoin="round" />
    <path
        d="M91.1172 400.51V402.227H93.6554C94.31 401.854 95.0434 401.659 95.7886 401.659C96.5339 401.659 97.2672 401.854 97.9219 402.227H109.912C111.178 402.223 112.428 401.93 113.576 401.369L113.319 400.51H91.1172Z"
        fill="#018762" stroke="#263238" stroke-width="0.663535" stroke-linecap="round" stroke-linejoin="round" />
    <path
        d="M135.272 209.875C135.272 209.875 142.274 239.075 151.37 347.079C151.37 347.079 120.892 356.464 86.918 349.759C86.918 349.759 89.4068 343.799 89.8808 315.737C90.3549 287.676 88.35 241.786 103.214 219.115L135.272 209.875Z"
        fill="#757575" stroke="#263238" stroke-width="0.663535" stroke-linecap="round" stroke-linejoin="round" />
    <path
        d="M136.43 209.516C136.825 212.413 116.964 222.967 105.814 222.791C104.584 222.805 103.361 222.613 102.189 222.222C99.5524 221.27 100.807 209.588 100.807 209.588C100.807 209.588 93.5773 199.955 87.859 191.595C84.343 186.421 81.3999 181.775 81.0641 180.119C80.5308 177.502 88.6095 169.772 95.0291 165.416C116.312 151.075 126.475 145.26 126.475 145.26C126.475 145.26 128.766 147.888 129.744 153.538L130.731 162.271C132.43 169.514 134.07 177.098 134.435 181.113C135.265 190.073 133.27 200.597 133.27 200.597C133.27 200.597 135.995 206.277 136.43 209.516Z"
        fill="#018762" />
    <path opacity="0.2"
        d="M105.849 222.793C104.62 222.806 103.396 222.614 102.225 222.224C99.5879 221.272 100.842 209.59 100.842 209.59C100.842 209.59 93.6128 199.957 87.8945 191.596L88.4674 190.199C88.4674 190.199 92.645 191.058 96.4572 197.204C100.269 203.35 100.724 207.417 103.766 207.417C109.849 207.417 122.481 180.411 117.454 199.832C114.432 211.525 104.556 211.732 104.556 211.732C104.556 211.732 114.906 215.012 117.454 215.012C119.301 215.012 112.871 221.489 105.849 222.793Z"
        fill="black" fill-opacity="0.7" />
    <path
        d="M136.43 209.516C136.825 212.413 116.964 222.967 105.814 222.791C104.584 222.805 103.361 222.613 102.189 222.222C99.5524 221.27 100.807 209.588 100.807 209.588C100.807 209.588 93.5773 199.955 87.859 191.595C84.343 186.421 81.3999 181.775 81.0641 180.119C80.5308 177.502 88.6095 169.772 95.0291 165.416C116.312 151.075 126.475 145.26 126.475 145.26C126.475 145.26 128.766 147.888 129.744 153.538L130.731 162.271C132.43 169.514 134.07 177.098 134.435 181.113C135.265 190.073 133.27 200.597 133.27 200.597C133.27 200.597 135.995 206.277 136.43 209.516Z"
        stroke="#263238" stroke-width="0.663535" stroke-linecap="round" stroke-linejoin="round" />
    <path
        d="M81.0928 180.115C77.7942 191.642 76.6386 209.594 76.3819 214.323C76.1251 219.052 66.6143 246.234 65.8143 248.552C65.0144 250.869 63.7305 254.822 63.7305 254.822L69.7253 259.551C69.7253 259.551 83.473 227.536 84.4902 224.37C85.5075 221.204 91.3048 197.085 91.3048 197.085C91.3048 197.085 90.7813 185.144 88.3419 182.795"
        fill="#018762" />
    <path
        d="M81.0928 180.115C77.7942 191.642 76.6386 209.594 76.3819 214.323C76.1251 219.052 66.6143 246.234 65.8143 248.552C65.0144 250.869 63.7305 254.822 63.7305 254.822L69.7253 259.551C69.7253 259.551 83.473 227.536 84.4902 224.37C85.5075 221.204 91.3048 197.085 91.3048 197.085C91.3048 197.085 90.7813 185.144 88.3419 182.795"
        stroke="#263238" stroke-width="0.663535" stroke-linecap="round" stroke-linejoin="round" />
    <path
        d="M63.7332 254.821C63.7332 254.821 58.4495 258.215 56.9977 259.415C55.5459 260.616 55.7533 266.482 55.7533 266.482C55.7533 266.482 52.7904 269.442 56.2273 271.584C57.4498 270.321 58.7461 269.139 60.1087 268.045C61.5506 267.765 60.0395 272.577 60.0395 272.577C60.3753 273.808 67.18 268.438 67.9405 267.6C68.7009 266.762 69.7281 259.55 69.7281 259.55C69.7281 259.55 67.6047 254.687 63.7332 254.821Z"
        fill="#FFB8B8" stroke="#263238" stroke-width="0.663535" stroke-linecap="round" stroke-linejoin="round" />
    <path
        d="M58.2741 266.382C57.9109 266.079 57.6233 265.688 57.4358 265.243C57.2483 264.798 57.1666 264.312 57.1976 263.826C57.2964 263.04 56.1211 261.291 56.1211 261.291"
        fill="white" />
    <path
        d="M58.2741 266.382C57.9109 266.079 57.6233 265.688 57.4358 265.243C57.2483 264.798 57.1666 264.312 57.1976 263.826C57.2964 263.04 56.1211 261.291 56.1211 261.291"
        stroke="#263238" stroke-width="0.663535" stroke-linecap="round" stroke-linejoin="round" />
    <path d="M60.0859 268.049C62.3684 267.811 62.566 268.732 62.566 268.732Z" fill="white" />
    <path d="M60.0859 268.049C62.3684 267.811 62.566 268.732 62.566 268.732" stroke="#263238" stroke-width="0.663535"
        stroke-linecap="round" stroke-linejoin="round" />
    <path d="M137.359 121.556C137.359 121.556 143.443 120.883 143.443 126.605" stroke="#263238" stroke-width="0.663535"
        stroke-linecap="round" stroke-linejoin="round" />
    <path d="M76.1133 216.068C76.1133 216.068 78.0885 222.773 81.0514 221.138" stroke="#263238" stroke-width="0.663535"
        stroke-linecap="round" stroke-linejoin="round" />
    <path d="M133.288 200.564C133.288 200.564 130.552 212.35 121.367 213.374" stroke="#263238" stroke-width="0.663535"
        stroke-linecap="round" stroke-linejoin="round" />
    <path d="M96.457 170.258C96.457 170.258 112.585 172.866 115.321 167.33" stroke="#263238" stroke-width="0.663535"
        stroke-linecap="round" stroke-linejoin="round" />
    <path d="M125.466 187.259C125.466 187.259 118.553 186.225 113.121 198.041" stroke="#263238" stroke-width="0.663535"
        stroke-linecap="round" stroke-linejoin="round" />
    <path d="M133.291 240.984C133.291 240.984 110.813 276.786 106.418 306.172" stroke="#263238" stroke-width="0.663535"
        stroke-linecap="round" stroke-linejoin="round" />
    <path d="M136.737 319.703C136.737 319.703 134.07 333.154 108.273 338.069" stroke="#263238" stroke-width="0.663535"
        stroke-linecap="round" stroke-linejoin="round" />
    <path
        d="M113.577 154.87C113.577 154.87 111.602 170.205 93.9531 166.842C93.9531 166.842 97.8542 163.562 98.2394 161.616C98.6246 159.671 93.963 143.664 93.963 143.664L103.977 147.244L107.533 148.517C107.533 148.517 106.891 153.504 108.599 155.574C108.735 155.728 108.884 155.87 109.044 155.998C109.933 156.67 113.577 154.87 113.577 154.87Z"
        fill="#FFB8B8" stroke="#263238" stroke-width="0.663535" stroke-linecap="round" stroke-linejoin="round" />
    <path
        d="M108.605 155.566C103.025 157.759 96.457 148.064 96.457 148.064C98.9471 147.627 101.46 147.351 103.983 147.236L107.538 148.509C107.538 148.509 106.896 153.496 108.605 155.566Z"
        fill="#263238" />
    <path
        d="M96.935 117.54C110.831 113.888 112.49 136.838 113.112 142.446C113.349 144.515 109.981 152.358 107.325 152.928C105.241 153.373 95.9869 150.279 94.6437 147.92C91.0784 141.639 81.301 121.648 96.935 117.54Z"
        fill="#FFB8B8" stroke="#263238" stroke-width="0.663535" stroke-linecap="round" stroke-linejoin="round" />
    <path
        d="M108.519 132.421C108.593 132.664 108.579 132.928 108.478 133.162C108.378 133.395 108.199 133.581 107.975 133.684C107.56 133.767 107.125 133.353 106.986 132.752C106.848 132.152 107.115 131.582 107.53 131.499C107.945 131.417 108.4 131.8 108.519 132.421Z"
        fill="#263238" />
    <path
        d="M99.6094 135.003C99.7281 135.604 99.4809 136.173 99.0656 136.256C98.6503 136.339 98.2152 135.935 98.0767 135.334C97.9383 134.734 98.1954 134.165 98.6206 134.071C99.0458 133.978 99.4908 134.403 99.6094 135.003Z"
        fill="#263238" />
    <path
        d="M93.2035 122.453C93.2035 122.453 97.154 132.49 89.6382 139.164L82.5273 130.628L94.9022 115.479C109.035 111.713 117.775 118.728 117.45 145.352C117.45 145.352 110.823 116.007 93.2035 122.453Z"
        fill="#263238" />
    <path
        d="M91.6622 138.959C91.4252 137.769 87.7118 135.751 87.3562 137.924C86.734 141.701 88.7685 144.132 90.7734 144.66C91.6721 144.898 92.9066 145.509 93.3017 144.412"
        fill="#FFB8B8" />
    <path
        d="M91.6622 138.959C91.4252 137.769 87.7118 135.751 87.3562 137.924C86.734 141.701 88.7685 144.132 90.7734 144.66C91.6721 144.898 92.9066 145.509 93.3017 144.412"
        stroke="#263238" stroke-width="0.663535" stroke-linecap="round" stroke-linejoin="round" />
    <path
        d="M90.2539 136.687L94.8661 132.973C94.8661 132.973 98.4511 130.376 101.315 131.059L103.982 130.645C104.76 130.124 105.596 129.703 106.471 129.393C107.517 129.206 109.374 128.71 110.303 129.682L111.478 130.148L111.586 131.979L110.599 132.124C110.599 132.124 110.737 135.228 108.861 135.611C106.787 136.056 104.732 133.014 104.732 133.014C104.732 133.014 102.974 132.942 102.757 133.801C102.757 133.801 103.3 137.029 100.426 137.774C97.5524 138.519 95.271 134.835 95.271 134.835L90.5403 137.722L90.2539 136.687Z"
        fill="#263238" />
</svg>