<svg width="32" height="32" viewBox="0 0 32 32" fill="none" xmlns="http://www.w3.org/2000/svg">
<g clip-path="url(#clip0_16387_11942)">
<path d="M21.3359 5.33398H10.6693C7.72375 5.33398 5.33594 7.7218 5.33594 10.6673V21.334C5.33594 24.2795 7.72375 26.6673 10.6693 26.6673H21.3359C24.2815 26.6673 26.6693 24.2795 26.6693 21.334V10.6673C26.6693 7.7218 24.2815 5.33398 21.3359 5.33398Z" stroke="#018762" stroke-width="2" stroke-linecap="round" stroke-linejoin="round"/>
<path d="M16 20C18.2091 20 20 18.2091 20 16C20 13.7909 18.2091 12 16 12C13.7909 12 12 13.7909 12 16C12 18.2091 13.7909 20 16 20Z" stroke="#018762" stroke-width="2" stroke-linecap="round" stroke-linejoin="round"/>
<path d="M22 10V10.001" stroke="#018762" stroke-width="2" stroke-linecap="round" stroke-linejoin="round"/>
</g>
<defs>
<clipPath id="clip0_16387_11942">
<rect width="32" height="32" fill="white"/>
</clipPath>
</defs>
</svg>
